<svg width="682" height="180" viewBox="0 0 682 180" fill="none" xmlns="http://www.w3.org/2000/svg">
<path fill-rule="evenodd" clip-rule="evenodd" d="M75.3417 0.605119C75.3417 0.938046 74.3542 1.06463 73.1473 0.887559C71.933 0.709754 70.9528 0.899268 70.9528 1.31195C70.9528 1.72244 70.2945 1.8856 69.4899 1.6756C68.6399 1.45317 68.0269 1.65293 68.0269 2.15268C68.0269 2.6261 67.6985 2.81049 67.2977 2.56244C66.2348 1.90536 57.7264 5.8961 58.2794 6.79171C58.5346 7.20512 58.4051 7.33391 57.9904 7.07781C56.9342 6.42439 52.2359 9.99512 47.8975 14.749C43.9417 19.0844 39.1294 27.3454 39.8653 28.5366C40.114 28.939 39.9333 29.2683 39.4644 29.2683C38.9955 29.2683 38.7929 29.741 39.0146 30.3183C39.2362 30.8963 39.0423 31.4941 38.5844 31.6463C38.1265 31.7993 37.7337 33.3015 37.7111 34.9844C37.6891 36.6673 37.4243 38.0451 37.1222 38.0466C36.8201 38.048 36.5736 40.6829 36.5736 43.9024C36.5736 47.1219 36.8457 49.7561 37.1786 49.7561C37.5114 49.7561 37.6313 50.7907 37.4455 52.0551C37.229 53.5339 37.3804 54.1866 37.8698 53.8837C38.3401 53.5924 38.485 53.9729 38.2487 54.8773C38.038 55.6822 38.2231 56.3415 38.6598 56.3415C39.0965 56.3415 39.264 56.8354 39.0328 57.439C38.801 58.0427 38.9955 58.5366 39.4644 58.5366C39.9333 58.5366 40.1278 58.8432 39.896 59.2178C39.2815 60.2129 41.8051 65.1395 42.6587 64.6119C43.0574 64.3654 43.1671 64.5132 42.9038 64.9398C42.6405 65.3656 43.6075 67.1451 45.0536 68.8939C48.2911 72.81 49.4497 73.9573 48.6327 72.439C48.283 71.7885 48.3138 71.5902 48.7088 71.951C49.0745 72.2868 49.3744 72.8012 49.3744 73.0946C49.3744 74.3356 55.7989 81.1837 56.575 80.7702C57.0402 80.5222 52.6229 85.1341 46.7587 91.0193C40.8952 96.9037 36.1837 101.805 36.2891 101.911C36.3951 102.017 35.2072 101.982 33.6499 101.833C30.2237 101.506 28.793 100.035 28.3958 96.431C28.2312 94.9368 28.2326 93.851 28.3987 94.0178C28.5655 94.1846 29.1448 93.9249 29.6861 93.4405C31.7276 91.6171 32.5893 91.091 33.9038 90.8656C34.6484 90.7383 35.088 90.9081 34.881 91.2439C34.6733 91.579 35.2789 92.2193 36.2262 92.6664C37.8018 93.4098 38.3555 93.06 42.7238 88.5527L47.4996 83.6261L45.8765 82.1429C43.6492 80.1059 39.6085 78.139 38.7468 78.6717C38.3562 78.9132 38.0366 78.7793 38.0366 78.3739C38.0366 77.9576 36.0514 77.6407 33.4649 77.6459C28.5194 77.6546 20.6795 80.4959 21.5799 81.9534C21.8403 82.3741 21.6538 82.6288 21.1666 82.5183C19.937 82.2395 15.1956 88.5139 15.6806 89.7783C15.9278 90.4229 15.7625 90.6139 15.2373 90.2897C14.6675 89.9371 14.5307 90.2758 14.8116 91.3493C15.0383 92.2171 14.9257 92.9268 14.5607 92.9268C14.1964 92.9268 13.898 94.7378 13.898 96.9512C13.898 99.1646 14.2169 100.976 14.6068 100.976C14.9959 100.976 15.1254 101.47 14.8942 102.073C14.6624 102.677 14.8269 103.171 15.26 103.171C15.6923 103.171 15.881 103.602 15.6784 104.13C14.8057 106.406 24.3017 115.768 26.2569 114.559C26.6322 114.327 27.0711 114.531 27.2313 115.013C27.6138 116.16 37.3051 116.838 37.3051 115.718C37.3051 115.281 37.7988 115.114 38.4023 115.345C39.0058 115.577 39.4995 115.382 39.4995 114.913C39.4995 114.444 39.7987 114.245 40.1652 114.471C41.1841 115.101 43.211 114.094 42.6741 113.225C42.413 112.802 42.5454 112.67 42.9674 112.932C43.3902 113.193 44.5108 112.725 45.4581 111.891C46.4053 111.058 46.7177 110.617 46.1523 110.911C45.4713 111.266 45.303 111.157 45.6549 110.589C45.946 110.118 46.4302 109.885 46.7316 110.071C47.0329 110.257 51.3669 106.311 56.3622 101.303C61.3574 96.2934 65.8098 92.1951 66.2568 92.1951C67.343 92.1951 69.7071 94.86 69.3824 95.7183C69.2405 96.0929 58.5185 106.813 45.5568 119.541C25.0946 139.634 21.6977 142.683 19.7724 142.683C18.5531 142.683 16.9241 142.051 16.1531 141.28C15.3821 140.509 14.6419 139.988 14.5073 140.122C14.3734 140.256 14.2637 139.103 14.2637 137.561C14.2637 136.019 14.3734 134.866 14.5073 135C14.6419 135.134 15.3821 134.613 16.1531 133.842C17.717 132.277 20.5339 132.024 22.8132 133.244C24.1342 133.951 24.8832 133.488 28.9824 129.424C31.5484 126.88 33.6477 124.534 33.6477 124.212C33.6477 123.218 26.7909 119.216 25.7632 119.611C25.1758 119.837 24.9959 119.657 25.3068 119.154C25.6571 118.586 25.2087 118.441 23.8818 118.695C22.8161 118.899 21.9442 118.782 21.9442 118.435C21.9442 118.089 20.7724 117.805 19.3409 117.805C17.6234 117.805 16.908 118.081 17.2379 118.615C17.5758 119.161 17.2269 119.262 16.1641 118.925C13.9192 118.212 8.68331 120.947 5.46118 124.514C2.5053 127.788 0.427916 132.056 1.02845 133.622C1.24204 134.179 1.09794 134.634 0.708793 134.634C0.318918 134.634 0 135.951 0 137.561C0 139.171 0.318918 140.488 0.708793 140.488C1.09794 140.488 1.23034 140.975 1.00139 141.571C0.342332 143.29 3.47084 148.93 6.70688 151.854C10.0877 154.909 14.2198 156.863 16.2036 156.345C16.9468 156.15 17.5553 156.289 17.5553 156.654C17.5553 157.019 18.5428 157.317 19.7498 157.317C20.9567 157.317 21.9442 157.033 21.9442 156.687C21.9442 156.34 22.8161 156.223 23.8818 156.427C25.2087 156.68 25.6571 156.536 25.3068 155.968C24.9988 155.47 25.1744 155.281 25.7464 155.497C27.7074 156.233 32.6105 152.095 48.2713 136.486L64.3696 120.44L64.3184 141.257C64.2847 154.797 64.0273 161.562 63.5811 160.61C63.0193 159.411 62.9388 159.57 63.1341 161.486C63.2658 162.773 63.1414 163.681 62.8569 163.506C62.5731 163.33 61.9345 163.677 61.4371 164.276C60.1731 165.8 56.0761 165.65 54.6081 164.028C52.8167 162.048 53.0471 157.881 55.0433 156.168C55.9489 155.392 57.1829 154.756 57.7863 154.756C58.6604 154.756 58.926 153.473 59.0935 148.44L59.3034 142.125L56.6094 141.619C55.1274 141.341 53.7164 141.384 53.4736 141.715C53.2307 142.046 52.6207 142.35 52.1174 142.39C51.6149 142.43 50.7554 142.512 50.209 142.573C46.943 142.934 38.828 153.048 39.7914 155.559C40.0079 156.124 39.866 156.585 39.4768 156.585C39.087 156.585 38.768 158.396 38.768 160.61C38.768 162.823 39.087 164.634 39.4768 164.634C39.866 164.634 39.9955 165.128 39.7643 165.732C39.5324 166.335 39.697 166.829 40.13 166.829C40.5631 166.829 40.7065 167.377 40.4497 168.047C40.1103 168.931 40.2478 169.1 40.9515 168.666C41.601 168.263 41.7451 168.349 41.3904 168.924C39.9925 171.187 50.9566 180.081 53.7983 178.99C54.3828 178.766 54.8604 178.902 54.8604 179.291C54.8604 179.681 56.3417 180 58.1521 180C59.9625 180 61.4437 179.701 61.4437 179.337C61.4437 178.972 62.053 178.833 62.7977 179.028C63.5423 179.222 64.6198 178.945 65.1925 178.411C65.7645 177.876 66.7191 177.331 67.313 177.198C70.4957 176.49 76.7783 169.294 75.7154 167.574C75.4624 167.164 75.6394 166.829 76.1083 166.829C76.5771 166.829 76.7717 166.335 76.5398 165.732C76.3087 165.128 76.4454 164.634 76.8441 164.634C77.3144 164.634 77.4988 154.499 77.3701 135.801C77.2603 119.943 77.3803 107.098 77.6363 107.257C77.8923 107.415 78.5119 107.05 79.0129 106.447C79.7064 105.611 80.1643 105.547 80.925 106.178C81.7391 106.854 81.9249 112.289 81.9249 135.455C81.9249 153.318 82.1882 163.902 82.6337 163.902C83.0229 163.902 83.164 164.366 82.9461 164.934C81.5292 168.628 93.2979 180.394 96.9911 178.976C97.5557 178.76 98.0173 178.902 98.0173 179.291C98.0173 179.681 99.6829 180 101.718 180C103.753 180 105.267 179.753 105.081 179.451C104.896 179.149 105.663 178.869 106.787 178.829C109.221 178.741 114.299 175.777 113.694 174.798C113.461 174.419 113.685 174.2 114.193 174.311C115.382 174.57 120.139 167.616 119.648 166.336C119.444 165.803 119.526 165.366 119.832 165.366C120.138 165.366 120.409 163.071 120.435 160.266C120.46 157.461 120.204 155.338 119.864 155.548C119.525 155.758 119.446 155.41 119.689 154.776C119.937 154.129 119.302 152.367 118.242 150.765C114.048 144.425 108.019 140.761 103.139 141.585L100.212 142.08V148.147V154.212L102.589 155.207C103.897 155.754 105.238 156.115 105.569 156.01C105.901 155.904 105.98 156.128 105.745 156.509C105.511 156.888 105.733 157.638 106.24 158.172C107.222 159.211 107.644 162.598 106.719 162.026C106.416 161.839 105.959 162.348 105.701 163.158C105.159 164.868 102.92 165.589 99.4035 165.188L96.9201 164.905L96.7109 143.367L96.501 121.829L112.558 137.826C123.176 148.405 128.921 153.632 129.521 153.261C130.059 152.929 130.242 153.001 129.972 153.438C129.441 154.298 132.913 156.073 133.914 155.454C134.287 155.224 134.591 155.423 134.591 155.896C134.591 156.416 135.305 156.62 136.398 156.41C137.391 156.22 138.03 156.347 137.817 156.691C137.605 157.035 138.457 157.317 139.711 157.317C141.022 157.317 141.803 157.01 141.547 156.596C141.273 156.154 141.914 156.038 143.213 156.298C144.555 156.566 145.703 156.342 146.364 155.68C146.937 155.107 147.757 154.756 148.188 154.9C149.29 155.267 155.63 149.532 156.955 146.968C157.561 145.795 157.861 144.515 157.619 144.125C157.378 143.734 157.564 143.415 158.033 143.415C158.502 143.415 158.697 142.921 158.465 142.317C158.234 141.713 158.363 141.22 158.752 141.22C159.142 141.22 159.461 139.573 159.461 137.561C159.461 135.549 159.163 133.902 158.798 133.902C158.433 133.902 158.321 133.193 158.547 132.325C158.855 131.149 158.715 130.898 158 131.34C157.373 131.728 157.217 131.648 157.549 131.11C159.093 128.611 148.768 118.106 146.279 119.644C145.886 119.887 145.563 119.699 145.563 119.226C145.563 118.726 144.95 118.526 144.1 118.749C143.295 118.959 142.637 118.833 142.637 118.468C142.637 118.103 141.485 117.805 140.077 117.805C138.669 117.805 137.517 118.156 137.517 118.586C137.517 119.033 136.894 119.169 136.058 118.904C135.14 118.613 133.236 119.183 130.926 120.441C124.908 123.716 124.903 123.833 130.457 129.377C134.444 133.354 135.491 134.063 136.061 133.171C136.447 132.567 136.768 132.276 136.774 132.524C136.78 132.771 138.093 132.735 139.691 132.443C141.29 132.15 142.494 132.112 142.368 132.358C142.109 132.861 144.574 135.38 144.954 135C145.088 134.866 145.197 136.019 145.197 137.561C145.197 139.103 145.065 140.234 144.904 140.072C144.742 139.911 144.24 140.286 143.787 140.906C142.835 142.207 137.233 143.734 138.008 142.48C138.308 141.994 138.035 141.877 137.28 142.166C136.615 142.422 136.15 142.386 136.246 142.087C136.498 141.299 89.887 95.449 89.0787 95.689C88.7049 95.7995 88.6216 95.5303 88.8929 95.0912C89.1643 94.6522 89.5754 94.4824 89.8073 94.7144C90.0391 94.9456 91.001 94.4085 91.9461 93.521L93.6636 91.9068L98.258 96.4617C100.785 98.9671 103.134 100.76 103.479 100.447C103.822 100.134 103.892 100.25 103.633 100.703C103.002 101.808 114.451 112.725 118.001 114.405C119.538 115.132 121.266 115.546 121.841 115.326C122.416 115.105 122.887 115.243 122.887 115.632C122.887 116.022 124.369 116.341 126.179 116.341C127.989 116.341 129.471 116.022 129.471 115.632C129.471 115.243 129.958 115.111 130.553 115.34C133.282 116.387 143.478 108.782 142.175 106.673C141.895 106.22 142.014 106.079 142.448 106.346C143.369 106.916 144.306 104.827 143.624 103.723C143.32 103.231 143.496 103.163 144.102 103.538C144.817 103.98 144.957 103.728 144.649 102.552C144.422 101.684 144.535 101.158 144.9 101.384C145.27 101.612 145.56 99.7536 145.556 97.1773C145.551 93.881 145.058 91.5066 143.832 88.8746C141.977 84.8898 135.684 78.7295 134.091 79.3405C133.562 79.5439 133.128 79.3559 133.128 78.9234C133.128 78.4902 132.634 78.3256 132.031 78.5576C131.427 78.7888 130.934 78.701 130.934 78.3615C130.934 78.0219 128.794 77.7439 126.179 77.7439C123.564 77.7439 121.424 78.0512 121.424 78.4273C121.424 78.8034 121.106 78.9139 120.718 78.6739C119.824 78.1215 114.881 80.6151 113.214 82.4598C112 83.8017 112.141 84.0402 116.871 88.6507C121.364 93.0307 121.933 93.3702 123.432 92.5727C124.334 92.0919 124.912 91.5373 124.715 91.3405C124.518 91.1429 125.093 91.0083 125.992 91.0397C127.888 91.1071 130.934 93.4778 130.934 94.8878C130.934 95.419 131.263 95.8537 131.665 95.8537C132.067 95.8537 132.397 96.3673 132.397 96.9944C132.397 97.6719 132.053 97.9229 131.549 97.612C130.969 97.2527 130.833 97.5849 131.116 98.6671C131.343 99.5356 131.267 100.084 130.948 99.8868C130.629 99.69 129.961 100.019 129.464 100.618C128.967 101.217 127.531 101.704 126.273 101.701C124.338 101.696 122.386 100.172 113.626 91.8212C107.929 86.3905 103.33 81.5363 103.406 81.0344C103.633 79.5395 104.659 78.2422 105.301 78.6388C106.126 79.1495 112.722 71.3085 112.073 70.5885C111.785 70.2702 111.924 70.2234 112.383 70.4854C113.876 71.3385 121.152 60.0563 120.389 58.069C120.199 57.5737 120.409 57.0461 120.856 56.8968C121.303 56.7476 121.696 55.4107 121.729 53.9246C121.763 52.4393 122.013 51.2232 122.284 51.2217C122.555 51.2202 122.77 47.9268 122.76 43.9024C122.751 39.878 122.492 36.5854 122.185 36.5854C121.879 36.5854 121.784 35.7622 121.977 34.7561C122.169 33.75 121.99 32.9268 121.578 32.9268C121.167 32.9268 121.016 32.2171 121.242 31.3493C121.523 30.2758 121.386 29.9371 120.817 30.2898C120.273 30.6256 120.131 30.4083 120.414 29.6722C120.654 29.0459 120.467 28.5366 119.997 28.5366C119.528 28.5366 119.333 28.23 119.565 27.8554C120.179 26.8602 117.656 21.9337 116.802 22.4612C116.404 22.7078 116.275 22.5907 116.516 22.2015C117.108 21.2422 114.523 17.4059 113.754 18.1039C113.418 18.409 113.387 18.2363 113.685 17.7198C115.028 15.3885 96.8002 1.7839 94.357 3.29415C93.9562 3.54219 93.6285 3.36073 93.6285 2.8917C93.6285 2.42268 93.1347 2.22805 92.5313 2.46C91.9278 2.69122 91.4341 2.52366 91.4341 2.08683C91.4341 1.65 90.7757 1.46487 89.9711 1.6756C89.1665 1.8856 88.5082 1.72244 88.5082 1.31195C88.5082 0.899268 87.528 0.709754 86.3138 0.887559C85.1068 1.06463 84.1193 0.938046 84.1193 0.605119C84.1193 0.272192 82.1444 0 79.7305 0C77.3167 0 75.3417 0.272192 75.3417 0.605119ZM85.0388 14.9232C84.8157 15.2832 85.5055 15.4112 86.5705 15.2078C87.6363 15.0037 88.5082 15.1559 88.5082 15.5459C88.5082 15.9351 89.0019 16.0646 89.6054 15.8327C90.2088 15.6015 90.7026 15.6907 90.7026 16.0317C90.7026 16.7378 95.1426 18.7405 96.0599 18.4485C96.392 18.3432 96.4761 18.559 96.2472 18.9293C95.8288 19.6068 97.8623 20.8361 98.9858 20.5859C99.3179 20.512 99.41 20.741 99.1913 21.0951C98.6574 21.9593 101.999 25.042 102.705 24.3359C103.01 24.0307 103.165 24.1098 103.048 24.5122C102.756 25.5234 105.212 30 106.059 30C106.439 30 106.539 30.548 106.282 31.2176C105.97 32.0305 106.096 32.261 106.663 31.9112C107.216 31.5688 107.359 31.781 107.074 32.5229C106.834 33.1478 106.972 33.6585 107.379 33.6585C107.788 33.6585 107.935 34.3683 107.709 35.2361C107.472 36.1412 107.592 36.6315 107.989 36.3856C108.398 36.1332 108.558 37.0332 108.379 38.5661C108.198 40.1166 108.359 40.9997 108.776 40.7415C109.183 40.4905 109.477 41.6634 109.477 43.5366C109.477 45.4098 109.183 46.5827 108.776 46.3317C108.358 46.0727 108.2 46.9734 108.385 48.559C108.556 50.0224 108.394 51.2195 108.026 51.2195C107.657 51.2195 107.528 51.878 107.739 52.6829C107.949 53.4878 107.845 54.1463 107.507 54.1463C107.17 54.1463 106.677 54.8283 106.412 55.6624C106.148 56.4959 104.503 58.9332 102.756 61.0785C101.01 63.2232 99.805 65.2281 100.079 65.5332C100.353 65.8383 100.211 65.8793 99.7626 65.6232C99.3135 65.3671 97.5492 66.8166 95.8375 68.8471L92.7288 72.5356L91.1056 71.0107C90.2132 70.1722 89.4832 69.0154 89.4832 68.4395C89.4832 67.8629 91.3214 65.6466 93.5678 63.5129L97.6516 59.6341L93.9942 63.6841C90.4502 67.609 90.4802 67.5922 94.9649 63.1573C97.8045 60.349 99.3866 58.2454 99.0582 57.7134C98.7407 57.1998 98.8351 57.0402 99.2908 57.3219C100.212 57.8919 101.149 55.8029 100.467 54.6988C100.201 54.2685 100.328 54.1317 100.752 54.3944C101.61 54.9249 102.697 51.5495 102.02 50.4541C101.782 50.07 101.937 49.7561 102.363 49.7561C102.814 49.7561 103.138 48.0761 103.138 45.7317C103.138 43.5183 102.839 41.7073 102.475 41.7073C102.11 41.7073 101.984 41.0488 102.194 40.2439C102.416 39.3937 102.217 38.7805 101.717 38.7805C101.244 38.7805 101.045 38.4761 101.275 38.1037C101.894 37.1019 100.12 33.6293 99.2601 34.1605C98.8549 34.4115 98.7451 34.2556 99.018 33.8151C99.6609 32.7739 95.1829 27.6622 94.1734 28.2863C93.7309 28.56 93.6182 28.4137 93.9086 27.9439C94.218 27.4427 92.916 26.3605 90.5468 25.1517C87.3393 23.5141 85.5896 23.1505 80.2901 23.018C76.7761 22.931 74.0609 23.1176 74.2569 23.4344C74.4522 23.7512 73.9021 23.8244 73.0339 23.5968C71.8584 23.2895 71.6068 23.4293 72.0486 24.1441C72.4267 24.7566 72.3558 24.9271 71.8518 24.6161C70.77 23.9473 67.2311 25.6449 67.7973 26.5617C68.0482 26.9671 67.8938 27.0768 67.4549 26.8061C66.327 26.1088 60.427 31.8732 61.1197 32.9941C61.4378 33.5093 61.3647 33.6959 60.9456 33.4368C60.0919 32.9093 57.5683 37.8359 58.1828 38.831C58.4147 39.2056 58.2172 39.5122 57.7439 39.5122C57.2216 39.5122 57.0212 40.2293 57.2341 41.3415C57.4264 42.3476 57.2999 43.1707 56.9532 43.1707C56.6072 43.1707 56.3234 44.3232 56.3234 45.7317C56.3234 47.1402 56.6218 48.2927 56.9861 48.2927C57.3511 48.2927 57.4886 48.9088 57.2911 49.6624C56.8201 51.4654 59.9244 58.6573 60.9112 58.0478C61.3354 57.7851 61.4517 57.9315 61.1752 58.3793C60.9031 58.8198 62.6748 61.3134 65.1128 63.9205C67.6948 66.6812 69.2229 68.8588 68.7738 69.1368C68.3503 69.3988 68.2237 69.971 68.4936 70.4078C68.7752 70.8637 68.6465 70.9924 68.1908 70.7107C67.7541 70.4407 67.1828 70.5658 66.9217 70.988C66.6386 71.4476 65.8654 71.0166 65.0008 69.9168C64.205 68.9049 63.3258 68.1527 63.0471 68.2456C62.7691 68.3385 62.4202 68.0854 62.2732 67.6829C61.7787 66.3315 57.5186 61.8293 56.7337 61.8293C56.3066 61.8293 55.9291 61.5 55.8947 61.0976C55.7594 59.5368 54.6761 57.8327 54.061 58.2132C53.7055 58.4327 53.6308 58.0478 53.8956 57.3571C54.2204 56.5105 54.1012 56.272 53.5299 56.6254C52.9593 56.9781 52.8401 56.7395 53.1642 55.8937C53.4721 55.0917 53.3617 54.8137 52.8584 55.1246C52.3486 55.44 52.2169 55.0544 52.4839 54.0329C52.737 53.0656 52.6097 52.6317 52.1555 52.9119C51.6961 53.1959 51.5535 52.6412 51.7802 51.4544C51.9821 50.4007 51.8519 49.721 51.492 49.9434C51.1255 50.1702 50.8373 47.4805 50.8373 43.8329C50.8373 40.249 51.1226 37.3171 51.4715 37.3171C51.8197 37.3171 51.9331 36.6585 51.7224 35.8537C51.5125 35.0488 51.6661 34.3902 52.064 34.3902C52.4619 34.3902 52.6528 33.9856 52.4883 33.4917C52.3237 32.9971 52.4693 32.2566 52.8123 31.8454C53.1547 31.4341 54.6622 29.3027 56.1617 27.1083C57.6612 24.9146 60.266 22.0683 61.9499 20.7834C63.6344 19.4985 64.7851 18.2202 64.5078 17.9429C64.2306 17.6656 64.333 17.5266 64.7353 17.6334C65.883 17.9378 71.6733 15.9402 71.3171 15.3629C71.1408 15.0783 71.8101 15.0007 72.8035 15.191C73.7975 15.3812 74.6109 15.251 74.6117 14.9027C74.6131 14.5537 77.0504 14.2683 80.0289 14.2683C83.0302 14.2683 85.2634 14.5602 85.0388 14.9232ZM81.9249 36.7683C81.9249 37.0698 82.4333 37.3171 83.0551 37.3171C83.6768 37.3171 84.9737 38.1051 85.937 39.0688C86.9004 40.0324 87.8901 40.6185 88.1366 40.3712C88.3838 40.1246 88.3473 40.5432 88.0569 41.3012C87.7409 42.1251 87.8118 42.5034 88.2339 42.2429C88.6771 41.9685 88.7613 43.3558 88.4599 45.9644C88.1951 48.251 88.1512 50.4512 88.3612 50.8537C88.5711 51.2561 88.5191 51.3871 88.2463 51.1456C87.9735 50.9034 85.9802 52.4912 83.8158 54.6732C81.4392 57.0695 79.6866 58.3251 79.3896 57.8451C79.119 57.4076 78.6289 57.2159 78.2998 57.4193C77.9713 57.6227 77.2954 57.2985 76.798 56.6993C76.3006 56.1 76.1602 55.6098 76.4864 55.6098C76.8119 55.6098 76.1434 54.6337 75.0008 53.441C73.8582 52.2476 72.6367 51.4493 72.2856 51.6659C71.9352 51.8824 71.6953 51.7888 71.7531 51.4566C72.0076 49.9895 71.636 48.2363 71.1357 48.5451C70.8336 48.7317 70.5871 47.4659 70.5871 45.7317C70.5871 43.9976 70.8336 42.7317 71.1357 42.9183C71.4378 43.1041 71.6843 42.7946 71.6843 42.2298C71.6843 41.6649 72.3346 40.6134 73.1297 39.8934C73.9248 39.1741 74.3681 38.2485 74.1143 37.8381C73.8495 37.41 74.0133 37.3141 74.4968 37.6134C74.9613 37.9002 75.3417 37.7971 75.3417 37.3829C75.3417 36.9695 75.8354 36.821 76.4389 37.0522C77.0423 37.2841 77.5361 37.1912 77.5361 36.8466C77.5361 36.5019 78.5236 36.2195 79.7305 36.2195C80.9374 36.2195 81.9249 36.4668 81.9249 36.7683ZM91.0683 70.2439C91.7962 71.0488 92.5569 71.7073 92.758 71.7073C92.9592 71.7073 92.5276 71.0488 91.7998 70.2439C91.072 69.439 90.3113 68.7805 90.1101 68.7805C89.909 68.7805 90.3405 69.439 91.0683 70.2439ZM81.3536 83.8485L79.3991 86.2976L77.3744 84.3571L75.3497 82.4166L77.7234 80.4183L80.0962 78.4193L81.7018 79.909L83.3074 81.3988L81.3536 83.8485ZM77.5361 83.7805C78.4812 84.7866 79.4189 85.6097 79.6201 85.6097C79.8212 85.6097 79.2126 84.7866 78.2676 83.7805C77.3225 82.7744 76.3848 81.9512 76.1836 81.9512C75.9824 81.9512 76.591 82.7744 77.5361 83.7805ZM109.355 106.098C111.744 108.512 113.533 110.488 113.332 110.488C113.131 110.488 111.013 108.512 108.624 106.098C106.235 103.683 104.445 101.707 104.647 101.707C104.848 101.707 106.966 103.683 109.355 106.098ZM20.5749 110.305C21.4841 111.465 21.4585 111.491 20.2984 110.581C19.594 110.029 19.0183 109.452 19.0183 109.301C19.0183 108.699 19.6188 109.086 20.5749 110.305ZM140.443 109.301C140.443 109.452 139.866 110.029 139.163 110.581C138.003 111.491 137.977 111.465 138.886 110.305C139.842 109.086 140.443 108.699 140.443 109.301ZM109.721 116.128C109.721 116.677 109.064 116.096 106.033 112.866L102.772 109.39L106.246 112.652C108.158 114.446 109.721 116.011 109.721 116.128ZM50.4716 115.82C50.4716 115.936 48.7431 117.664 46.6314 119.662L42.7911 123.293L46.4207 119.451C49.7943 115.882 50.4716 115.274 50.4716 115.82ZM63.0222 124.39C63.0222 125.396 63.1882 125.808 63.3909 125.305C63.5942 124.802 63.5942 123.979 63.3909 123.476C63.1882 122.973 63.0222 123.384 63.0222 124.39ZM63.0493 129.878C63.0639 131.085 63.2277 131.491 63.4135 130.779C63.5993 130.067 63.5869 129.079 63.3865 128.584C63.1861 128.088 63.0347 128.671 63.0493 129.878ZM116.67 140.488C119.059 142.902 120.848 144.878 120.647 144.878C120.446 144.878 118.327 142.902 115.938 140.488C113.549 138.073 111.76 136.098 111.961 136.098C112.163 136.098 114.281 138.073 116.67 140.488ZM39.4995 144.354C39.4995 144.468 37.6072 146.362 35.2935 148.561L31.0876 152.561L35.0858 148.354C38.8002 144.445 39.4995 143.811 39.4995 144.354ZM62.9644 157.012C62.9995 157.864 63.1729 158.038 63.4062 157.455C63.6176 156.926 63.5913 156.295 63.3484 156.052C63.1056 155.809 62.933 156.241 62.9644 157.012ZM52.4342 161.113C52.2008 161.696 52.0275 161.523 51.9923 160.67C51.9609 159.899 52.1335 159.468 52.3764 159.71C52.6192 159.953 52.6456 160.585 52.4342 161.113Z" fill="#D8EBDD"/>
<path d="M227.898 129.788C220.398 129.788 213.498 128.025 207.198 124.5C200.973 120.975 196.023 116.1 192.348 109.875C188.673 103.65 186.836 96.6375 186.836 88.8375C186.836 81.0375 188.673 74.025 192.348 67.8C196.023 61.575 200.973 56.7375 207.198 53.2875C213.498 49.7625 220.398 48 227.898 48C235.398 48 242.261 49.7625 248.486 53.2875C254.711 56.7375 259.623 61.575 263.223 67.8C266.898 74.025 268.736 81.0375 268.736 88.8375C268.736 96.6375 266.898 103.65 263.223 109.875C259.623 116.1 254.673 120.975 248.373 124.5C242.148 128.025 235.323 129.788 227.898 129.788ZM227.898 106.5C232.848 106.5 236.673 104.925 239.373 101.775C242.073 98.55 243.423 94.2375 243.423 88.8375C243.423 83.3625 242.073 79.05 239.373 75.9C236.673 72.675 232.848 71.0625 227.898 71.0625C222.873 71.0625 219.011 72.675 216.311 75.9C213.611 79.05 212.261 83.3625 212.261 88.8375C212.261 94.2375 213.611 98.55 216.311 101.775C219.011 104.925 222.873 106.5 227.898 106.5ZM274.371 97.275C274.371 90.675 275.721 84.9375 278.421 80.0625C281.196 75.1125 285.021 71.325 289.896 68.7C294.846 66.075 300.471 64.7625 306.771 64.7625C315.021 64.7625 321.958 67.0875 327.583 71.7375C333.283 76.3875 336.883 82.8375 338.383 91.0875H311.946C310.971 87.7875 309.058 86.1375 306.208 86.1375C304.183 86.1375 302.571 87.075 301.371 88.95C300.246 90.825 299.683 93.6 299.683 97.275C299.683 100.95 300.246 103.725 301.371 105.6C302.571 107.475 304.183 108.412 306.208 108.412C309.058 108.412 310.971 106.762 311.946 103.462H338.383C336.883 111.712 333.283 118.162 327.583 122.812C321.958 127.462 315.021 129.788 306.771 129.788C300.471 129.788 294.846 128.475 289.896 125.85C285.021 123.225 281.196 119.475 278.421 114.6C275.721 109.65 274.371 103.875 274.371 97.275ZM385.788 107.737V129H376.338C358.938 129 350.238 120.337 350.238 103.012V86.3625H342.363V65.55H350.238V50.25H375.213V65.55H385.563V86.3625H375.213V103.462C375.213 104.962 375.55 106.05 376.225 106.725C376.975 107.4 378.175 107.737 379.825 107.737H385.788ZM425.449 129.788C419.074 129.788 413.337 128.475 408.237 125.85C403.137 123.225 399.124 119.475 396.199 114.6C393.349 109.65 391.924 103.875 391.924 97.275C391.924 90.675 393.349 84.9375 396.199 80.0625C399.124 75.1125 403.137 71.325 408.237 68.7C413.337 66.075 419.074 64.7625 425.449 64.7625C431.824 64.7625 437.562 66.075 442.662 68.7C447.762 71.325 451.737 75.1125 454.587 80.0625C457.512 84.9375 458.974 90.675 458.974 97.275C458.974 103.875 457.512 109.65 454.587 114.6C451.737 119.475 447.762 123.225 442.662 125.85C437.562 128.475 431.824 129.788 425.449 129.788ZM425.449 108.187C427.774 108.187 429.724 107.287 431.299 105.487C432.874 103.612 433.662 100.875 433.662 97.275C433.662 93.675 432.874 90.975 431.299 89.175C429.724 87.3 427.774 86.3625 425.449 86.3625C423.124 86.3625 421.174 87.3 419.599 89.175C418.024 90.975 417.237 93.675 417.237 97.275C417.237 100.875 417.987 103.612 419.487 105.487C421.062 107.287 423.049 108.187 425.449 108.187ZM491.795 74.2125C493.37 71.2875 495.62 69 498.545 67.35C501.545 65.625 505.108 64.7625 509.233 64.7625C514.183 64.7625 518.645 66.075 522.62 68.7C526.595 71.25 529.708 75 531.958 79.95C534.283 84.825 535.445 90.6 535.445 97.275C535.445 103.95 534.283 109.762 531.958 114.712C529.708 119.587 526.595 123.337 522.62 125.962C518.645 128.512 514.183 129.788 509.233 129.788C505.108 129.788 501.545 128.962 498.545 127.312C495.62 125.587 493.37 123.262 491.795 120.337V159.375H466.82V65.55H491.795V74.2125ZM510.133 97.275C510.133 93.9 509.27 91.275 507.545 89.4C505.82 87.525 503.608 86.5875 500.908 86.5875C498.208 86.5875 495.995 87.525 494.27 89.4C492.545 91.275 491.683 93.9 491.683 97.275C491.683 100.65 492.545 103.275 494.27 105.15C495.995 107.025 498.208 107.962 500.908 107.962C503.608 107.962 505.82 107.025 507.545 105.15C509.27 103.275 510.133 100.65 510.133 97.275ZM610.448 65.55V129H585.473V119.325C583.523 122.325 580.898 124.762 577.598 126.637C574.373 128.512 570.51 129.45 566.01 129.45C558.735 129.45 553.035 127.012 548.91 122.137C544.86 117.262 542.835 110.662 542.835 102.337V65.55H567.698V99.1875C567.698 102.187 568.485 104.587 570.06 106.387C571.71 108.112 573.885 108.975 576.585 108.975C579.36 108.975 581.535 108.112 583.11 106.387C584.685 104.587 585.473 102.187 585.473 99.1875V65.55H610.448ZM649.965 129.788C643.965 129.788 638.64 128.812 633.99 126.862C629.415 124.912 625.778 122.212 623.078 118.762C620.378 115.312 618.84 111.412 618.465 107.062H642.428C642.728 108.937 643.515 110.325 644.79 111.225C646.14 112.125 647.828 112.575 649.853 112.575C651.128 112.575 652.14 112.312 652.89 111.787C653.64 111.187 654.015 110.475 654.015 109.65C654.015 108.225 653.228 107.212 651.653 106.612C650.078 106.012 647.415 105.337 643.665 104.587C639.09 103.687 635.303 102.712 632.303 101.662C629.378 100.612 626.79 98.8125 624.54 96.2625C622.365 93.7125 621.278 90.1875 621.278 85.6875C621.278 81.7875 622.29 78.2625 624.315 75.1125C626.415 71.8875 629.49 69.375 633.54 67.575C637.59 65.7 642.503 64.7625 648.278 64.7625C656.828 64.7625 663.503 66.8625 668.303 71.0625C673.178 75.2625 676.103 80.7375 677.078 87.4875H654.915C654.54 85.7625 653.753 84.45 652.553 83.55C651.353 82.575 649.74 82.0875 647.715 82.0875C646.44 82.0875 645.465 82.35 644.79 82.875C644.115 83.325 643.778 84.0375 643.778 85.0125C643.778 86.2875 644.565 87.2625 646.14 87.9375C647.715 88.5375 650.228 89.175 653.678 89.85C658.253 90.75 662.115 91.7625 665.265 92.8875C668.415 94.0125 671.153 95.9625 673.478 98.7375C675.803 101.437 676.965 105.187 676.965 109.987C676.965 113.737 675.878 117.112 673.703 120.112C671.528 123.112 668.378 125.475 664.253 127.2C660.203 128.925 655.44 129.788 649.965 129.788Z" fill="#27F460"/>
</svg>
