<svg width="58" height="64" viewBox="0 0 58 64" fill="none" xmlns="http://www.w3.org/2000/svg">
<path fill-rule="evenodd" clip-rule="evenodd" d="M27.7608 0.215153C27.7608 0.333527 27.4097 0.378536 26.9806 0.315577C26.5488 0.252357 26.2003 0.31974 26.2003 0.466471C26.2003 0.612423 25.9663 0.670437 25.6802 0.595771C25.378 0.516681 25.16 0.587708 25.16 0.765399C25.16 0.933724 25.0432 0.999284 24.9007 0.911089C24.5228 0.677463 21.4976 2.09639 21.6942 2.41483C21.785 2.56182 21.7389 2.60761 21.5915 2.51655C21.2159 2.28423 19.5454 3.55382 18.0029 5.2441C16.5964 6.78556 14.8853 9.7228 15.147 10.1463C15.2354 10.2894 15.1712 10.4065 15.0044 10.4065C14.8377 10.4065 14.7657 10.5746 14.8445 10.7798C14.9233 10.9854 14.8544 11.1979 14.6916 11.252C14.5288 11.3064 14.3891 11.8405 14.381 12.4389C14.3732 13.0373 14.2791 13.5272 14.1717 13.5277C14.0643 13.5282 13.9766 14.465 13.9766 15.6098C13.9766 16.7545 14.0734 17.6911 14.1917 17.6911C14.31 17.6911 14.3527 18.0589 14.2866 18.5085C14.2096 19.0343 14.2635 19.2663 14.4375 19.1586C14.6047 19.0551 14.6562 19.1904 14.5722 19.5119C14.4973 19.7981 14.5631 20.0325 14.7184 20.0325C14.8736 20.0325 14.9332 20.2081 14.851 20.4228C14.7686 20.6374 14.8377 20.813 15.0044 20.813C15.1712 20.813 15.2403 20.922 15.1579 21.0552C14.9394 21.409 15.8367 23.1607 16.1402 22.9731C16.282 22.8855 16.321 22.938 16.2273 23.0897C16.1337 23.2411 16.4775 23.8738 16.9917 24.4956C18.1428 25.888 18.5548 26.2959 18.2643 25.7561C18.14 25.5248 18.1509 25.4543 18.2913 25.5826C18.4214 25.702 18.528 25.8849 18.528 25.9892C18.528 26.4304 20.8123 28.8653 21.0882 28.7183C21.2536 28.6301 19.683 30.2699 17.598 32.3624C15.5132 34.4546 13.838 36.1972 13.8754 36.2349C13.9132 36.2727 13.4908 36.2602 12.9371 36.2073C11.7189 36.0911 11.2102 35.5681 11.0689 34.2866C11.0104 33.7553 11.0109 33.3692 11.07 33.4286C11.1293 33.4879 11.3352 33.3955 11.5277 33.2233C12.2536 32.575 12.56 32.3879 13.0273 32.3078C13.2921 32.2625 13.4484 32.3229 13.3748 32.4423C13.3009 32.5614 13.5163 32.7891 13.8531 32.948C14.4133 33.2124 14.6102 33.088 16.1634 31.4854L17.8614 29.7337L17.2843 29.2064C16.4924 28.4821 15.0557 27.7828 14.7493 27.9722C14.6104 28.058 14.4968 28.0104 14.4968 27.8663C14.4968 27.7182 13.7909 27.6056 12.8713 27.6074C11.1129 27.6105 8.32535 28.6207 8.64551 29.139C8.7381 29.2886 8.67178 29.3791 8.49857 29.3398C8.06137 29.2407 6.37554 31.4716 6.54797 31.9212C6.63588 32.1504 6.5771 32.2183 6.39036 32.103C6.18776 31.9776 6.13913 32.0981 6.239 32.4797C6.31962 32.7883 6.27957 33.0406 6.14979 33.0406C6.02027 33.0406 5.91416 33.6846 5.91416 34.4715C5.91416 35.2585 6.02755 35.9024 6.16617 35.9024C6.30454 35.9024 6.35057 36.078 6.26839 36.2927C6.18594 36.5073 6.24446 36.6829 6.39843 36.6829C6.55213 36.6829 6.61924 36.8364 6.54719 37.024C6.23692 37.8334 9.61326 41.1619 10.3085 40.7321C10.4419 40.6496 10.5979 40.7222 10.6549 40.8937C10.7909 41.3013 14.2367 41.5422 14.2367 41.1442C14.2367 40.9889 14.4122 40.9293 14.6268 41.0115C14.8414 41.094 15.0169 41.0248 15.0169 40.858C15.0169 40.6912 15.1233 40.6205 15.2536 40.7009C15.6159 40.9249 16.3366 40.5669 16.1457 40.2578C16.0528 40.1074 16.0999 40.0606 16.25 40.1535C16.4003 40.2464 16.7987 40.0799 17.1355 39.7835C17.4723 39.4872 17.5834 39.3303 17.3823 39.4349C17.1402 39.5611 17.0804 39.5226 17.2055 39.3205C17.309 39.1529 17.4812 39.0702 17.5883 39.1363C17.6955 39.2026 19.2365 37.7995 21.0125 36.0187C22.7886 34.2377 24.3717 32.7805 24.5306 32.7805C24.9168 32.7805 25.7574 33.728 25.6419 34.0332C25.5915 34.1664 21.7792 37.978 17.1706 42.5035C9.89519 49.6476 8.68739 50.7317 8.00286 50.7317C7.5693 50.7317 6.99011 50.5072 6.71598 50.233C6.44186 49.9588 6.17866 49.7735 6.1308 49.8211C6.08321 49.8687 6.0442 49.459 6.0442 48.9106C6.0442 48.3621 6.08321 47.9524 6.1308 48C6.17866 48.0476 6.44186 47.8624 6.71598 47.5882C7.27203 47.0319 8.2736 46.9419 9.08401 47.3756C9.55371 47.6272 9.82003 47.4622 11.2775 46.0173C12.1899 45.1127 12.9363 44.2789 12.9363 44.1644C12.9363 43.8109 10.4983 42.388 10.1329 42.5285C9.92406 42.6086 9.86008 42.5446 9.97061 42.3659C10.0952 42.1638 9.93576 42.1125 9.46398 42.2025C9.08504 42.2751 8.77503 42.2335 8.77503 42.1102C8.77503 41.9871 8.35838 41.8862 7.84941 41.8862C7.23874 41.8862 6.98438 41.9843 7.10168 42.1742C7.22184 42.3685 7.09778 42.4044 6.71989 42.2845C5.9217 42.0311 4.06006 43.0033 2.91441 44.2716C1.86343 45.4356 1.1248 46.9531 1.33833 47.5101C1.41427 47.7081 1.36303 47.8699 1.22467 47.8699C1.08605 47.8699 0.972656 48.3382 0.972656 48.9106C0.972656 49.4829 1.08605 49.9512 1.22467 49.9512C1.36303 49.9512 1.41011 50.1245 1.32871 50.3363C1.09437 50.9474 2.20673 52.9527 3.35732 53.9926C4.55941 55.0788 6.02859 55.7737 6.73393 55.5892C6.99817 55.52 7.21456 55.5694 7.21456 55.6992C7.21456 55.8288 7.56566 55.935 7.99479 55.935C8.42392 55.935 8.77503 55.834 8.77503 55.711C8.77503 55.5876 9.08504 55.546 9.46398 55.6186C9.93576 55.7086 10.0952 55.6574 9.97061 55.4552C9.86112 55.2783 9.92354 55.2112 10.1269 55.2877C10.8242 55.5497 12.5675 54.0782 18.1358 48.5284L23.8596 42.8233L23.8414 50.2246C23.8294 55.039 23.7379 57.4442 23.5793 57.1057C23.3795 56.6795 23.3509 56.736 23.4203 57.4171C23.4672 57.8747 23.4229 58.1979 23.3218 58.1354C23.2209 58.073 22.9938 58.1963 22.817 58.4094C22.3675 58.951 20.9108 58.8979 20.3889 58.3209C19.7519 57.6169 19.8339 56.1355 20.5436 55.5265C20.8656 55.2505 21.3043 55.0244 21.5189 55.0244C21.8297 55.0244 21.9241 54.5683 21.9837 52.7787L22.0583 50.5332L21.1004 50.3534C20.5735 50.2546 20.0718 50.2699 19.9855 50.3875C19.8991 50.5054 19.6822 50.6133 19.5033 50.6276C19.3246 50.6419 19.019 50.6711 18.8247 50.6927C17.6635 50.8209 14.7782 54.4172 15.1207 55.3098C15.1977 55.5106 15.1472 55.6748 15.0089 55.6748C14.8702 55.6748 14.7569 56.3187 14.7569 57.1057C14.7569 57.8927 14.8702 58.5366 15.0089 58.5366C15.1472 58.5366 15.1933 58.7122 15.1111 58.9268C15.0286 59.1415 15.0872 59.3171 15.2411 59.3171C15.3951 59.3171 15.4461 59.5117 15.3548 59.75C15.2341 60.0643 15.283 60.1246 15.5332 59.9701C15.7641 59.827 15.8154 59.8574 15.6892 60.0619C15.1922 60.8663 19.0905 64.0289 20.101 63.641C20.3088 63.5611 20.4786 63.6095 20.4786 63.7479C20.4786 63.8866 21.0053 64 21.6489 64C22.2926 64 22.8193 63.8938 22.8193 63.7643C22.8193 63.6345 23.036 63.585 23.3007 63.6542C23.5655 63.7234 23.9486 63.6248 24.1522 63.4349C24.3556 63.2447 24.695 63.0509 24.9062 63.0038C26.0378 62.752 28.2716 60.1933 27.8937 59.5819C27.8037 59.4362 27.8667 59.3171 28.0334 59.3171C28.2001 59.3171 28.2693 59.1415 28.1868 58.9268C28.1046 58.7122 28.1533 58.5366 28.295 58.5366C28.4622 58.5366 28.5278 54.9328 28.482 48.2849C28.443 42.6464 28.4856 38.0792 28.5767 38.1357C28.6677 38.1921 28.888 38.0623 29.0661 37.8477C29.3127 37.5506 29.4755 37.5277 29.746 37.7522C30.0355 37.9926 30.1015 39.9248 30.1015 48.1618C30.1015 54.5129 30.1951 58.2764 30.3535 58.2764C30.4919 58.2764 30.5421 58.4414 30.4646 58.6432C29.9608 59.9565 34.1452 64.1402 35.4584 63.636C35.6591 63.559 35.8233 63.6095 35.8233 63.7479C35.8233 63.8866 36.4155 64 37.139 64C37.8625 64 38.4009 63.9123 38.3348 63.8049C38.269 63.6974 38.5419 63.598 38.9413 63.5835C39.8066 63.5522 41.6124 62.4983 41.3973 62.1502C41.3143 62.0157 41.3942 61.9379 41.5746 61.9772C41.9975 62.0693 43.6888 59.5967 43.5143 59.1417C43.4415 58.9521 43.4709 58.7967 43.5796 58.7967C43.6883 58.7967 43.7848 57.9809 43.7939 56.9834C43.803 55.9862 43.7117 55.2312 43.591 55.3059C43.4704 55.3805 43.4423 55.257 43.5289 55.0314C43.6171 54.8014 43.391 54.175 43.0142 53.6055C41.5229 51.3512 39.3793 50.0483 37.6443 50.3415L36.6035 50.5173V52.6743V54.8311L37.4488 55.1847C37.9138 55.3792 38.3905 55.5075 38.5083 55.4701C38.6264 55.4326 38.6545 55.5122 38.571 55.6475C38.4875 55.7825 38.5666 56.0489 38.7468 56.2391C39.0961 56.6085 39.2459 57.8125 38.9172 57.6094C38.8095 57.5428 38.6469 57.7238 38.5554 58.0118C38.3627 58.6196 37.5666 58.8761 36.3161 58.7335L35.4331 58.6328L35.3588 50.975L35.2841 43.3171L40.9931 49.0047C44.7687 52.7662 46.8113 54.6248 47.0246 54.4929C47.2158 54.3748 47.281 54.4005 47.1851 54.5558C46.9963 54.8615 48.2306 55.4927 48.5866 55.2726C48.719 55.1906 48.8272 55.2614 48.8272 55.4297C48.8272 55.6144 49.0811 55.687 49.4696 55.6126C49.8228 55.545 50.0501 55.59 49.9744 55.7123C49.8987 55.8348 50.2017 55.935 50.6478 55.935C51.1138 55.935 51.3913 55.826 51.3003 55.6787C51.203 55.5213 51.4311 55.4802 51.8928 55.5726C52.37 55.668 52.7781 55.5882 53.0132 55.3527C53.2168 55.149 53.5084 55.0244 53.6616 55.0754C54.0535 55.206 56.3079 53.1668 56.7789 52.2552C56.9945 51.8382 57.1008 51.3832 57.015 51.2445C56.9292 51.1056 56.9955 50.9919 57.1622 50.9919C57.3289 50.9919 57.3981 50.8163 57.3157 50.6016C57.2335 50.387 57.2795 50.2114 57.4179 50.2114C57.5565 50.2114 57.6699 49.626 57.6699 48.9106C57.6699 48.1951 57.5638 47.6098 57.4343 47.6098C57.3045 47.6098 57.2644 47.3574 57.3451 47.0488C57.4543 46.6308 57.4046 46.5415 57.1505 46.6987C56.9276 46.8365 56.872 46.8082 56.9901 46.617C57.5391 45.7285 53.8678 41.9931 52.983 42.54C52.8431 42.6266 52.7284 42.5597 52.7284 42.3914C52.7284 42.2137 52.5105 42.1427 52.2082 42.2218C51.9222 42.2965 51.6881 42.2517 51.6881 42.1219C51.6881 41.9923 51.2785 41.8862 50.7778 41.8862C50.2772 41.8862 49.8675 42.0111 49.8675 42.1638C49.8675 42.323 49.6459 42.3711 49.3489 42.2769C49.0225 42.1734 48.3456 42.3761 47.524 42.8235C45.3846 43.988 45.3825 44.0297 47.3575 46.0006C48.7749 47.4149 49.1471 47.667 49.35 47.3496C49.4873 47.135 49.6012 47.0314 49.6035 47.1196C49.6056 47.2075 50.0725 47.1948 50.6407 47.0907C51.209 46.9867 51.6371 46.9731 51.5924 47.0606C51.5003 47.2395 52.3768 48.135 52.5118 48C52.5593 47.9524 52.5984 48.3621 52.5984 48.9106C52.5984 49.459 52.5513 49.8609 52.4941 49.8034C52.4366 49.7462 52.2579 49.8794 52.0969 50.0998C51.7586 50.5626 49.7666 51.1056 50.042 50.6596C50.1487 50.4869 50.0517 50.445 49.7833 50.548C49.5469 50.6388 49.3814 50.6261 49.4155 50.5197C49.5052 50.2397 32.9325 33.9374 32.6451 34.0228C32.5122 34.062 32.4825 33.9663 32.579 33.8102C32.6755 33.6541 32.8217 33.5938 32.9041 33.6762C32.9866 33.7584 33.3286 33.5675 33.6646 33.2519L34.2753 32.678L35.9088 34.2975C36.8074 35.1883 37.6425 35.826 37.765 35.7146C37.8872 35.6033 37.912 35.6444 37.8199 35.8057C37.5957 36.1985 41.6662 40.0799 42.9286 40.6772C43.4751 40.9358 44.0894 41.0831 44.294 41.0047C44.4985 40.9262 44.666 40.9753 44.666 41.1138C44.666 41.2524 45.1926 41.3659 45.8363 41.3659C46.48 41.3659 47.0067 41.2524 47.0067 41.1138C47.0067 40.9753 47.1799 40.9283 47.3916 41.0097C48.3617 41.382 51.9872 38.6781 51.5237 37.9281C51.4244 37.7673 51.4665 37.7168 51.6207 37.812C51.9484 38.0147 52.2813 37.2719 52.0389 36.8793C51.9307 36.7043 51.9934 36.6801 52.209 36.8135C52.4631 36.9707 52.5128 36.8812 52.4036 36.4631C52.3227 36.1543 52.363 35.9672 52.4925 36.0476C52.6241 36.1288 52.7274 35.468 52.7258 34.5519C52.724 33.3799 52.549 32.5357 52.1131 31.5999C51.4535 30.183 49.2158 27.9927 48.6496 28.21C48.4613 28.2823 48.3071 28.2154 48.3071 28.0617C48.3071 27.9076 48.1315 27.8491 47.9169 27.9316C47.7024 28.0138 47.5268 27.9826 47.5268 27.8619C47.5268 27.7411 46.7661 27.6423 45.8363 27.6423C44.9065 27.6423 44.1458 27.7515 44.1458 27.8853C44.1458 28.019 44.0327 28.0583 43.8946 27.9729C43.5767 27.7765 41.8194 28.6632 41.2264 29.319C40.7949 29.7962 40.8449 29.881 42.5268 31.5203C44.1242 33.0776 44.3265 33.1983 44.8594 32.9147C45.1804 32.7438 45.3858 32.5466 45.3156 32.4766C45.2457 32.4064 45.4501 32.3585 45.77 32.3697C46.4441 32.3936 47.5268 33.2365 47.5268 33.7379C47.5268 33.9268 47.6439 34.0813 47.7869 34.0813C47.9299 34.0813 48.047 34.2639 48.047 34.4869C48.047 34.7278 47.9247 34.817 47.7458 34.7065C47.5396 34.5787 47.4912 34.6968 47.5916 35.0816C47.6725 35.3904 47.6454 35.5856 47.532 35.5153C47.4186 35.4453 47.1812 35.5621 47.0043 35.7752C46.8275 35.9883 46.3169 36.1616 45.8696 36.1605C45.1817 36.1587 44.4878 35.6168 41.3731 32.6475C39.3473 30.7166 37.7122 28.9907 37.7393 28.8122C37.8199 28.2807 38.1848 27.8194 38.4129 27.9605C38.7062 28.142 41.0516 25.3541 40.8207 25.0981C40.7185 24.985 40.7679 24.9683 40.931 25.0615C41.4618 25.3648 44.0488 21.3534 43.7778 20.6468C43.7102 20.4706 43.7848 20.2831 43.9437 20.23C44.1026 20.1769 44.2423 19.7016 44.2542 19.1732C44.2662 18.6451 44.3549 18.2127 44.4514 18.2122C44.5479 18.2116 44.6241 17.0406 44.6207 15.6098C44.6173 14.1789 44.5252 13.0081 44.4163 13.0081C44.3073 13.0081 44.2738 12.7154 44.3422 12.3577C44.4106 12 44.3468 11.7073 44.2004 11.7073C44.0542 11.7073 44.0004 11.455 44.081 11.1464C44.1809 10.7647 44.1323 10.6443 43.9297 10.7697C43.7364 10.8891 43.686 10.8118 43.7864 10.5501C43.8719 10.3274 43.8054 10.1463 43.6381 10.1463C43.4714 10.1463 43.4022 10.0373 43.4847 9.90413C43.7031 9.55031 42.8059 7.79864 42.5023 7.98621C42.3606 8.07389 42.3148 8.03226 42.4004 7.89385C42.6111 7.55278 41.6919 6.18875 41.4186 6.43694C41.2992 6.54543 41.288 6.48403 41.3939 6.30036C41.8717 5.47148 35.3905 0.634276 34.5218 1.17125C34.3793 1.25945 34.2628 1.19493 34.2628 1.02816C34.2628 0.861397 34.0872 0.792195 33.8727 0.874667C33.6581 0.956878 33.4825 0.897302 33.4825 0.741985C33.4825 0.586668 33.2485 0.520844 32.9624 0.595771C32.6763 0.670437 32.4422 0.612423 32.4422 0.466471C32.4422 0.31974 32.0937 0.252357 31.662 0.315577C31.2329 0.378536 30.8818 0.333527 30.8818 0.215153C30.8818 0.0967794 30.1795 0 29.3213 0C28.463 0 27.7608 0.0967794 27.7608 0.215153ZM31.2087 5.30602C31.1293 5.43402 31.3746 5.47954 31.7533 5.40722C32.1322 5.33463 32.4422 5.38875 32.4422 5.52741C32.4422 5.66582 32.6178 5.71187 32.8323 5.6294C33.0469 5.54719 33.2225 5.57893 33.2225 5.70016C33.2225 5.95122 34.8012 6.66328 35.1273 6.55948C35.2454 6.52202 35.2753 6.59876 35.1939 6.7304C35.0451 6.97132 35.7681 7.40839 36.1676 7.31942C36.2857 7.29314 36.3185 7.37457 36.2407 7.50049C36.0508 7.80774 37.2389 8.9038 37.4898 8.65275C37.5983 8.54426 37.6534 8.57236 37.6121 8.71545C37.508 9.07499 38.3814 10.6667 38.6826 10.6667C38.8175 10.6667 38.8532 10.8615 38.7619 11.0996C38.6508 11.3886 38.6958 11.4706 38.8971 11.3462C39.0938 11.2245 39.1447 11.2999 39.0436 11.5637C38.9583 11.7859 39.0071 11.9675 39.152 11.9675C39.2971 11.9675 39.3497 12.2198 39.269 12.5284C39.185 12.8502 39.2277 13.0245 39.3689 12.9371C39.514 12.8474 39.571 13.1673 39.5075 13.7124C39.443 14.2637 39.5003 14.5777 39.6485 14.4859C39.7931 14.3966 39.8979 14.8137 39.8979 15.4797C39.8979 16.1457 39.7931 16.5627 39.6485 16.4735C39.5 16.3814 39.4438 16.7017 39.5096 17.2654C39.5702 17.7858 39.5127 18.2114 39.3819 18.2114C39.2508 18.2114 39.2048 18.4455 39.2797 18.7317C39.3544 19.0179 39.3174 19.252 39.1975 19.252C39.0774 19.252 38.9023 19.4945 38.8082 19.7911C38.7143 20.0874 38.1291 20.954 37.5081 21.7168C36.8872 22.4793 36.4589 23.1922 36.5562 23.3007C36.6537 23.4092 36.6032 23.4237 36.4438 23.3327C36.2841 23.2416 35.6568 23.757 35.0482 24.479L33.9429 25.7904L33.3658 25.2483C33.0485 24.9501 32.7889 24.5388 32.7889 24.334C32.7889 24.129 33.4425 23.341 34.2412 22.5824L35.6932 21.2033L34.3928 22.6433C33.1327 24.0388 33.1434 24.0328 34.7379 22.4559C35.7476 21.4574 36.3101 20.7095 36.1934 20.5203C36.0805 20.3377 36.114 20.281 36.2761 20.3811C36.6038 20.5838 36.9367 19.841 36.6943 19.4485C36.5996 19.2955 36.6449 19.2468 36.7957 19.3402C37.1008 19.5288 37.487 18.3287 37.2464 17.9392C37.1619 17.8027 37.217 17.6911 37.3684 17.6911C37.5289 17.6911 37.6438 17.0937 37.6438 16.2602C37.6438 15.4732 37.5377 14.8293 37.4082 14.8293C37.2784 14.8293 37.2337 14.5951 37.3083 14.3089C37.3874 14.0066 37.3164 13.7886 37.1387 13.7886C36.9705 13.7886 36.8997 13.6804 36.9817 13.548C37.2017 13.1918 36.5707 11.9571 36.2651 12.146C36.1211 12.2352 36.082 12.1798 36.1791 12.0232C36.4077 11.6529 34.8155 9.83545 34.4565 10.0574C34.2992 10.1547 34.2591 10.1026 34.3624 9.93561C34.4724 9.7574 34.0095 9.37262 33.1671 8.94283C32.0266 8.36058 31.4045 8.23128 29.5202 8.18419C28.2708 8.15323 27.3054 8.21957 27.3751 8.33222C27.4445 8.44488 27.249 8.47089 26.9403 8.38998C26.5223 8.28071 26.4328 8.3304 26.5899 8.58458C26.7244 8.80234 26.6992 8.86296 26.52 8.75239C26.1353 8.5146 24.877 9.11818 25.0784 9.44416C25.1676 9.58829 25.1127 9.62731 24.9566 9.53105C24.5556 9.28312 22.4578 11.3327 22.7041 11.7312C22.8172 11.9144 22.7912 11.9807 22.6422 11.8887C22.3387 11.7011 21.4414 13.4527 21.6599 13.8066C21.7423 13.9398 21.6721 14.0488 21.5038 14.0488C21.3181 14.0488 21.2469 14.3037 21.3225 14.6992C21.3909 15.0569 21.346 15.3496 21.2227 15.3496C21.0997 15.3496 20.9987 15.7593 20.9987 16.2602C20.9987 16.761 21.1049 17.1707 21.2344 17.1707C21.3642 17.1707 21.4131 17.3898 21.3428 17.6578C21.1753 18.2988 22.2791 20.8559 22.63 20.6392C22.7808 20.5458 22.8222 20.5979 22.7239 20.7571C22.6271 20.9137 23.257 21.8003 24.1239 22.7273C25.0419 23.7089 25.5852 24.4831 25.4256 24.582C25.275 24.6751 25.23 24.8786 25.3259 25.0339C25.4261 25.196 25.3803 25.2418 25.2183 25.1416C25.063 25.0456 24.8599 25.0901 24.767 25.2402C24.6664 25.4036 24.3915 25.2503 24.0841 24.8593C23.8011 24.4995 23.4885 24.2321 23.3894 24.2651C23.2906 24.2981 23.1665 24.2081 23.1142 24.065C22.9384 23.5845 21.4237 21.9837 21.1447 21.9837C20.9928 21.9837 20.8586 21.8667 20.8463 21.7236C20.7982 21.1686 20.4131 20.5627 20.1943 20.698C20.0679 20.7761 20.0414 20.6392 20.1355 20.3936C20.251 20.0926 20.2086 20.0078 20.0055 20.1335C19.8026 20.2589 19.7603 20.174 19.8755 19.8733C19.985 19.5882 19.9457 19.4893 19.7668 19.5999C19.5855 19.712 19.5387 19.5749 19.6336 19.2117C19.7236 18.8678 19.6783 18.7135 19.5168 18.8131C19.3535 18.9141 19.3028 18.7169 19.3834 18.2949C19.4552 17.9203 19.4089 17.6786 19.2809 17.7577C19.1506 17.8383 19.0482 16.882 19.0482 15.585C19.0482 14.3108 19.1496 13.2683 19.2736 13.2683C19.3974 13.2683 19.4378 13.0341 19.3628 12.748C19.2882 12.4618 19.3428 12.2276 19.4843 12.2276C19.6258 12.2276 19.6937 12.0838 19.6352 11.9082C19.5766 11.7323 19.6284 11.469 19.7504 11.3228C19.8721 11.1766 20.4081 10.4187 20.9413 9.6385C21.4744 8.85854 22.4006 7.84651 22.9993 7.38966C23.5982 6.93281 24.0073 6.47831 23.9088 6.37971C23.8102 6.28111 23.8466 6.23167 23.9897 6.26966C24.3977 6.37789 26.4565 5.66764 26.3298 5.46237C26.2672 5.36117 26.5051 5.33359 26.8583 5.40124C27.2118 5.46888 27.501 5.42257 27.5013 5.29873C27.5018 5.17463 28.3683 5.07317 29.4274 5.07317C30.4945 5.07317 31.2885 5.17698 31.2087 5.30602ZM30.1015 13.0732C30.1015 13.1804 30.2823 13.2683 30.5033 13.2683C30.7244 13.2683 31.1855 13.5485 31.528 13.8911C31.8706 14.2338 32.2225 14.4421 32.3101 14.3542C32.398 14.2665 32.385 14.4153 32.2818 14.6849C32.1694 14.9778 32.1946 15.1123 32.3447 15.0197C32.5023 14.9221 32.5322 15.4154 32.4251 16.3429C32.3309 17.1559 32.3153 17.9382 32.39 18.0813C32.4646 18.2244 32.4461 18.271 32.3491 18.1851C32.2521 18.099 31.5434 18.6635 30.7738 19.4394C29.9288 20.2914 29.3057 20.7378 29.2001 20.5672C29.1039 20.4116 28.9296 20.3434 28.8126 20.4157C28.6958 20.4881 28.4555 20.3728 28.2786 20.1597C28.1018 19.9467 28.0518 19.7724 28.1678 19.7724C28.2836 19.7724 28.0459 19.4253 27.6396 19.0012C27.2334 18.5769 26.799 18.2931 26.6742 18.3701C26.5496 18.4471 26.4643 18.4138 26.4849 18.2957C26.5754 17.774 26.4432 17.1507 26.2654 17.2605C26.1579 17.3268 26.0703 16.8767 26.0703 16.2602C26.0703 15.6436 26.1579 15.1935 26.2654 15.2598C26.3728 15.3259 26.4604 15.2159 26.4604 15.015C26.4604 14.8142 26.6916 14.4403 26.9743 14.1843C27.257 13.9286 27.4146 13.5995 27.3244 13.4535C27.2302 13.3013 27.2885 13.2673 27.4604 13.3737C27.6256 13.4756 27.7608 13.439 27.7608 13.2917C27.7608 13.1447 27.9364 13.0919 28.1509 13.1741C28.3655 13.2566 28.541 13.2235 28.541 13.101C28.541 12.9785 28.8922 12.878 29.3213 12.878C29.7504 12.878 30.1015 12.966 30.1015 13.0732ZM33.3525 24.9756C33.6113 25.2618 33.8818 25.4959 33.9533 25.4959C34.0248 25.4959 33.8714 25.2618 33.6126 24.9756C33.3538 24.6894 33.0833 24.4553 33.0118 24.4553C32.9403 24.4553 33.0937 24.6894 33.3525 24.9756ZM29.8984 29.8128L29.2035 30.6836L28.4836 29.9936L27.7637 29.3037L28.6076 28.5932L29.4513 27.8824L30.0222 28.4121L30.5931 28.9418L29.8984 29.8128ZM28.541 29.7886C28.8771 30.1463 29.2105 30.439 29.282 30.439C29.3535 30.439 29.1371 30.1463 28.8011 29.7886C28.4651 29.4309 28.1317 29.1382 28.0602 29.1382C27.9886 29.1382 28.205 29.4309 28.541 29.7886ZM39.8545 37.7236C40.7039 38.5821 41.3401 39.2845 41.2685 39.2845C41.197 39.2845 40.4438 38.5821 39.5944 37.7236C38.745 36.865 38.1088 36.1626 38.1804 36.1626C38.2519 36.1626 39.0051 36.865 39.8545 37.7236ZM8.28816 39.2195C8.61144 39.6321 8.60234 39.6412 8.18985 39.3178C7.9394 39.1214 7.73471 38.9164 7.73471 38.8626C7.73471 38.6484 7.94824 38.7861 8.28816 39.2195ZM50.9078 38.8626C50.9078 38.9164 50.7029 39.1214 50.4527 39.3178C50.0402 39.6412 50.0311 39.6321 50.3544 39.2195C50.6943 38.7861 50.9078 38.6484 50.9078 38.8626ZM39.9845 41.2899C39.9845 41.4853 39.751 41.2787 38.6732 40.1301L37.5138 38.8943L38.7491 40.0541C39.4287 40.692 39.9845 41.2483 39.9845 41.2899ZM18.9181 41.1806C18.9181 41.2217 18.3035 41.8362 17.5527 42.5465L16.1873 43.8374L17.4778 42.4715C18.6773 41.2025 18.9181 40.9863 18.9181 41.1806ZM23.3806 44.2276C23.3806 44.5854 23.4396 44.7318 23.5116 44.5528C23.5839 44.3741 23.5839 44.0814 23.5116 43.9024C23.4396 43.7237 23.3806 43.8699 23.3806 44.2276ZM23.3902 46.1789C23.3954 46.6081 23.4536 46.7523 23.5197 46.4991C23.5858 46.246 23.5813 45.8948 23.5101 45.7186C23.4388 45.5425 23.385 45.7496 23.3902 46.1789ZM42.4553 49.9512C43.3047 50.8097 43.9409 51.5122 43.8693 51.5122C43.7978 51.5122 43.0446 50.8097 42.1952 49.9512C41.3458 49.0927 40.7096 48.3902 40.7811 48.3902C40.8527 48.3902 41.6059 49.0927 42.4553 49.9512ZM15.0169 51.3259C15.0169 51.3665 14.3441 52.0398 13.5215 52.8218L12.026 54.2439L13.4476 52.748C14.7683 51.3582 15.0169 51.1329 15.0169 51.3259ZM23.36 55.8265C23.3725 56.1296 23.4341 56.1912 23.5171 55.9839C23.5923 55.796 23.5829 55.5715 23.4965 55.4851C23.4102 55.3988 23.3488 55.5523 23.36 55.8265ZM19.6159 57.2847C19.5329 57.492 19.4713 57.4304 19.4588 57.1273C19.4476 56.8531 19.509 56.6996 19.5954 56.7859C19.6817 56.8723 19.6911 57.0968 19.6159 57.2847Z" fill="#27F460"/>
</svg>
