<svg width="27" height="24" viewBox="0 0 27 24" fill="none" xmlns="http://www.w3.org/2000/svg">
<path d="M23.625 0C24.5584 0 25.3125 0.767679 25.3125 1.71429C25.3125 2.66089 24.5584 3.42857 23.625 3.42857H4.21875C3.75258 3.42857 3.375 3.81429 3.375 4.28571C3.375 4.75714 3.75258 5.14286 4.21875 5.14286H23.625C25.4865 5.14286 27 6.68036 27 8.57143V20.5714C27 22.4625 25.4865 24 23.625 24H3.375C1.51084 24 0 22.4625 0 20.5714V3.42857C0 1.53482 1.51084 0 3.375 0H23.625ZM21.9375 16.2857C22.8709 16.2857 23.625 15.5196 23.625 14.5714C23.625 13.6232 22.8709 12.8571 21.9375 12.8571C21.0041 12.8571 20.25 13.6232 20.25 14.5714C20.25 15.5196 21.0041 16.2857 21.9375 16.2857Z" fill="white"/>
</svg>
