<svg width="31" height="24" viewBox="0 0 31 24" fill="none" xmlns="http://www.w3.org/2000/svg">
<path d="M27.4286 0C29.3196 0 30.8571 1.53482 30.8571 3.42857V5.14286H0V3.42857C0 1.53482 1.53482 0 3.42857 0H27.4286ZM30.8571 20.5714C30.8571 22.4625 29.3196 24 27.4286 24H3.42857C1.53482 24 0 22.4625 0 20.5714V10.2857H30.8571V20.5714ZM6 17.1429C5.52857 17.1429 5.14286 17.5286 5.14286 18C5.14286 18.4714 5.52857 18.8571 6 18.8571H9.42857C9.9 18.8571 10.2857 18.4714 10.2857 18C10.2857 17.5286 9.9 17.1429 9.42857 17.1429H6ZM12.8571 18.8571H19.7143C20.1857 18.8571 20.5714 18.4714 20.5714 18C20.5714 17.5286 20.1857 17.1429 19.7143 17.1429H12.8571C12.3857 17.1429 12 17.5286 12 18C12 18.4714 12.3857 18.8571 12.8571 18.8571Z" fill="white"/>
</svg>
