<svg width="29" height="32" viewBox="0 0 29 32" fill="none" xmlns="http://www.w3.org/2000/svg">
<path d="M10.9973 25C10.9973 25.55 10.5473 26 9.99731 26C9.44731 26 8.99731 25.55 8.99731 25V12C8.99731 11.45 9.44731 11 9.99731 11C10.5473 11 10.9973 11.45 10.9973 12V25ZM15.9973 25C15.9973 25.55 15.5473 26 14.9973 26C14.4473 26 13.9973 25.55 13.9973 25V12C13.9973 11.45 14.4473 11 14.9973 11C15.5473 11 15.9973 11.45 15.9973 12V25ZM20.9973 25C20.9973 25.55 20.5473 26 19.9973 26C19.4473 26 18.9973 25.55 18.9973 25V12C18.9973 11.45 19.4473 11 19.9973 11C20.5473 11 20.9973 11.45 20.9973 12V25ZM20.8411 1.55875L23.1348 5H27.4973C28.3286 5 28.9973 5.67188 28.9973 6.5C28.9973 7.33125 28.3286 8 27.4973 8H26.9973V27C26.9973 29.7625 24.7598 32 21.9973 32H7.99731C5.23606 32 2.99731 29.7625 2.99731 27V8H2.49731C1.66919 8 0.997314 7.33125 0.997314 6.5C0.997314 5.67188 1.66919 5 2.49731 5H6.86106L9.15356 1.55875C9.80356 0.584813 10.8973 0 12.0661 0H17.9286C19.0973 0 20.1911 0.584875 20.8411 1.55875ZM10.4661 5H19.5286L18.3411 3.2225C18.2473 3.08375 18.0911 3 17.9286 3H12.0661C11.9036 3 11.6911 3.08375 11.6536 3.2225L10.4661 5ZM5.99731 27C5.99731 28.1063 6.89294 29 7.99731 29H21.9973C23.1036 29 23.9973 28.1063 23.9973 27V8H5.99731V27Z" fill="#F24C54"/>
</svg>
