<svg width="32" height="32" viewBox="0 0 32 32" fill="none" xmlns="http://www.w3.org/2000/svg">
<path d="M23.4969 1.32805C25.2666 -0.442685 28.1384 -0.442685 29.908 1.32805L30.6701 2.09134C32.4397 3.86227 32.4397 6.73342 30.6701 8.50308L18.2509 20.9286C17.703 21.4702 17.0291 21.8669 16.286 22.081L9.98824 23.8822C9.45923 24.0333 8.89243 23.8822 8.50197 23.4414C8.1178 23.1076 7.96666 22.5408 8.1178 22.0118L9.91896 15.714C10.1331 14.9709 10.5298 14.297 11.0714 13.7491L23.4969 1.32805ZM27.7164 3.46551C27.1811 2.87541 26.2238 2.87541 25.6319 3.46551L23.7992 5.29753L26.7025 8.20079L28.5351 6.31147C29.1271 5.77616 29.1271 4.8189 28.5351 4.2288L27.7164 3.46551ZM12.8285 16.5453L11.7705 20.2295L15.4547 19.1715C15.7066 19.1022 15.927 18.9699 16.1097 18.7873L24.5675 10.3357L21.6643 7.43247L13.2127 15.8903C13.0301 16.073 12.8978 16.2934 12.8285 16.5453ZM12.5955 3.78607C13.4331 3.78607 14.107 4.46308 14.107 5.29753C14.107 6.13513 13.4331 6.80899 12.5955 6.80899H5.54202C4.15085 6.80899 3.02292 7.93629 3.02292 9.32809V26.458C3.02292 27.8498 4.15085 28.9771 5.54202 28.9771H22.6719C24.0637 28.9771 25.191 27.8498 25.191 26.458V19.4045C25.191 18.5669 25.8649 17.893 26.7025 17.893C27.5401 17.893 28.2139 18.5669 28.2139 19.4045V26.458C28.2139 29.5187 25.7326 32 22.6719 32H5.54202C2.48131 32 0 29.5187 0 26.458V9.32809C0 6.26738 2.48131 3.78607 5.54202 3.78607H12.5955Z" fill="#27F460"/>
</svg>
