<svg width="27" height="24" viewBox="0 0 27 24" fill="none" xmlns="http://www.w3.org/2000/svg">
<path d="M26.9906 11.9766C26.9906 12.8203 26.2875 13.4813 25.4906 13.4813H23.9906L24.0234 20.9859C24.0234 21.1172 24.0141 21.2391 24 21.3656V22.125C24 23.1609 23.1609 24 22.125 24H21.375C21.3234 24 21.2719 23.9578 21.2203 23.9953C21.1547 23.9578 21.0891 24 21.0234 24H18.375C17.3391 24 16.5 23.1609 16.5 22.125V18C16.5 17.1703 15.8297 16.5 15 16.5H12C11.1703 16.5 10.5 17.1703 10.5 18V22.125C10.5 23.1609 9.66094 24 8.625 24H6.00469C5.93438 24 5.86406 23.9953 5.79375 23.9906C5.7375 23.9953 5.68125 24 5.625 24H4.875C3.83953 24 3 23.1609 3 22.125V16.875C3 16.8328 3.00141 16.7859 3.00422 16.7438V13.4813H1.50234C0.657187 13.4813 0 12.8203 0 11.9766C0 11.5547 0.140813 11.1797 0.469219 10.8516L12.4875 0.37575C12.8156 0.0469687 13.1906 0 13.5187 0C13.8469 0 14.2219 0.0939375 14.5078 0.328781L26.475 10.8516C26.85 11.1797 27.0422 11.5547 26.9906 11.9766Z" fill="white"/>
</svg>
