<svg width="32" height="32" viewBox="0 0 32 32" fill="none" xmlns="http://www.w3.org/2000/svg">
<circle cx="16" cy="16" r="16" transform="rotate(-90 16 16)" fill="url(#paint0_linear_439_149)"/>
<path d="M22.3848 9.65684C22.9063 10.1783 22.9461 10.9811 22.4422 11.485L13.7111 20.2162L19.817 20.321C20.5411 20.3334 21.1377 20.9301 21.1502 21.6542C21.155 22.0177 21.0129 22.3425 20.7794 22.5759C20.546 22.8093 20.2211 22.9501 19.8593 22.9436L10.5903 22.7845C9.8662 22.772 9.26958 22.1754 9.25715 21.4513L9.09799 12.1823C9.08556 11.4582 9.66203 10.8817 10.3862 10.8942C11.1103 10.9066 11.7069 11.5032 11.7194 12.2274L11.8255 18.3305L20.5566 9.59939C21.0605 9.0955 21.8633 9.13535 22.3848 9.65684Z" fill="#424242"/>
<defs>
<linearGradient id="paint0_linear_439_149" x1="0" y1="0" x2="32" y2="32" gradientUnits="userSpaceOnUse">
<stop stop-color="#3DFF73"/>
<stop offset="1" stop-color="#12E04B"/>
</linearGradient>
</defs>
</svg>
