<svg width="32" height="9" viewBox="0 0 32 9" fill="none" xmlns="http://www.w3.org/2000/svg">
<path d="M23.7037 4.14815C23.7037 1.85704 25.563 -9.53674e-07 27.8519 -9.53674e-07C30.1407 -9.53674e-07 32 1.85704 32 4.14815C32 6.43926 30.1407 8.2963 27.8519 8.2963C25.563 8.2963 23.7037 6.43926 23.7037 4.14815ZM11.8519 4.14815C11.8519 1.85704 13.7111 -9.53674e-07 16 -9.53674e-07C18.2889 -9.53674e-07 20.1481 1.85704 20.1481 4.14815C20.1481 6.43926 18.2889 8.2963 16 8.2963C13.7111 8.2963 11.8519 6.43926 11.8519 4.14815ZM8.2963 4.14815C8.2963 6.43926 6.43704 8.2963 4.14815 8.2963C1.85704 8.2963 0 6.43926 0 4.14815C0 1.85704 1.85704 -9.53674e-07 4.14815 -9.53674e-07C6.43704 -9.53674e-07 8.2963 1.85704 8.2963 4.14815Z" fill="#D8EBDD"/>
</svg>
