<svg width="32" height="32" viewBox="0 0 32 32" fill="none" xmlns="http://www.w3.org/2000/svg">
<circle cx="16" cy="16" r="16" transform="rotate(-90 16 16)" fill="#F24C54"/>
<path d="M9.61522 22.3848C9.09373 21.8633 9.05389 21.0605 9.55777 20.5566L18.2889 11.8255L12.183 11.7206C11.4589 11.7082 10.8623 11.1116 10.8498 10.3874C10.845 10.0239 10.9871 9.69917 11.2206 9.46574C11.454 9.2323 11.7789 9.0915 12.1407 9.098L21.4097 9.25716C22.1338 9.26959 22.7304 9.86621 22.7429 10.5903L22.902 19.8593C22.9144 20.5834 22.338 21.1599 21.6138 21.1475C20.8897 21.135 20.2931 20.5384 20.2806 19.8143L20.1745 13.7111L11.4434 22.4422C10.9395 22.9461 10.1367 22.9063 9.61522 22.3848Z" fill="white"/>
</svg>
