<svg width="32" height="32" viewBox="0 0 32 32" fill="none" xmlns="http://www.w3.org/2000/svg">
<circle cx="16" cy="16" r="16" transform="rotate(-90 16 16)" fill="#CDD8D0"/>
<path d="M9 13.5H20.5875L18.7944 15.2931C18.4038 15.6838 18.4038 16.3166 18.7944 16.7072C18.9875 16.9031 19.2437 17 19.5 17C19.7563 17 20.0119 16.9023 20.2069 16.707L23.7069 13.207C24.0975 12.8164 24.0975 12.1836 23.7069 11.793L20.2069 8.29297C19.8162 7.90234 19.1834 7.90234 18.7928 8.29297C18.4022 8.68359 18.4022 9.31641 18.7928 9.70703L20.5875 11.5H9C8.44719 11.5 8 11.9472 8 12.5C8 13.0528 8.44719 13.5 9 13.5ZM23 18.5H11.4156L13.2087 16.7069C13.5994 16.3162 13.5994 15.6834 13.2087 15.2928C12.8181 14.9022 12.1853 14.9022 11.7947 15.2928L8.29469 18.7928C7.90406 19.1834 7.90406 19.8162 8.29469 20.2069L11.7947 23.7069C11.9875 23.9031 12.2438 24 12.5 24C12.7562 24 13.0119 23.9023 13.2069 23.707C13.5975 23.3164 13.5975 22.6836 13.2069 22.293L11.4156 20.5H23C23.5528 20.5 24 20.0528 24 19.5C24 18.9472 23.5531 18.5 23 18.5Z" fill="#424242"/>
</svg>
