<svg width="30" height="24" viewBox="0 0 30 24" fill="none" xmlns="http://www.w3.org/2000/svg">
<path d="M25.0781 0.329686C25.5187 -0.109888 26.2312 -0.109888 26.6297 0.32964L29.6297 3.33068C29.8828 3.54172 30 3.82827 30 4.12654C30 4.42528 29.8828 4.71323 29.6297 4.88207L26.6297 7.88353C26.2312 8.36189 25.5187 8.36189 25.0781 7.88353C24.6422 7.4849 24.6422 6.77205 25.0781 6.33121L26.1609 5.21035H18C17.3766 5.21035 16.875 4.74606 16.875 4.12654C16.875 3.50514 17.3766 3.00099 18 3.00099L26.1609 2.95925L25.0781 1.9214C24.6422 1.48197 24.6422 0.76912 25.0781 0.329686ZM4.87969 17.6383L3.84094 18.7592L11.9578 18.717C12.6234 18.717 13.0828 19.261 13.0828 19.8425C13.0828 20.5038 12.6234 20.9681 11.9578 20.9681L3.84141 21.0103L4.87969 22.0889C5.35781 22.5297 5.35781 23.2426 4.87969 23.6412C4.48125 24.1196 3.76875 24.1196 3.32953 23.6412L0.329484 20.6398C0.1185 20.4709 -1.40612e-05 20.1849 1.25132e-09 19.8425C1.25132e-09 19.5846 0.118547 19.2985 0.329531 19.0874L3.32953 16.086C3.76875 15.6498 4.48125 15.6498 4.87969 16.086C5.35781 16.5268 5.35781 17.2397 4.87969 17.6383ZM4.45781 3.00146H15.8391C15.6609 3.33819 15.5625 3.72087 15.5625 4.0848C15.5625 5.47298 16.6547 6.52349 18 6.52349H22.5516C22.7063 7.38642 23.1984 8.08988 23.8781 8.53072C23.9578 8.64328 24.0516 8.75114 24.15 8.85432C25.1016 9.80635 26.6484 9.80635 27.6 8.85432L28.5 7.94919V18.0088C28.5 19.6643 27.1547 21.0103 25.5 21.0103H14.1609C14.3391 20.6726 14.3953 20.2927 14.3953 19.8425C14.3953 18.5387 13.3453 17.4038 11.9578 17.4038L7.44844 17.446C7.28906 16.6253 6.80156 15.9218 6.12188 15.481C6.04219 15.3684 5.94844 15.2606 5.85 15.1574C4.89844 14.2054 3.35344 14.2054 2.40141 15.1574L1.45781 16.0625V6.00293C1.45781 4.34509 2.84297 3.00146 4.45781 3.00146ZM4.45781 9.00439C6.15469 9.00439 7.45781 7.65842 7.45781 6.00293H4.45781V9.00439ZM25.5 18.0088V15.0073C23.8453 15.0073 22.5 16.3533 22.5 18.0088H25.5ZM14.9578 16.5081C17.4844 16.5081 19.5 14.4914 19.5 12.0059C19.5 9.47806 17.4844 7.50366 14.9578 7.50366C12.4734 7.50366 10.4578 9.47806 10.4578 12.0059C10.4578 14.4914 12.4734 16.5081 14.9578 16.5081Z" fill="white"/>
</svg>
