<?xml version="1.0" standalone="no"?>
<!DOCTYPE svg PUBLIC "-//W3C//DTD SVG 20010904//EN"
 "http://www.w3.org/TR/2001/REC-SVG-20010904/DTD/svg10.dtd">
<svg version="1.0" xmlns="http://www.w3.org/2000/svg"
 width="1024.000000pt" height="1024.000000pt" viewBox="0 0 1024.000000 1024.000000"
 preserveAspectRatio="xMidYMid meet">
<metadata>
Created by potrace 1.14, written by Peter Selinger 2001-2017
</metadata>
<g transform="translate(0.000000,1024.000000) scale(0.100000,-0.100000)"
fill="#000000" stroke="none">
<path d="M4965 10235 c-5 -2 -27 -6 -47 -10 -21 -3 -44 -12 -52 -21 -15 -15
-39 -17 -165 -14 -59 1 -66 -1 -86 -26 -20 -25 -24 -26 -82 -19 -56 6 -62 5
-76 -16 -9 -12 -14 -26 -11 -30 3 -5 -17 -7 -43 -5 -35 3 -70 -3 -128 -24
-100 -34 -218 -88 -227 -104 -4 -6 -8 -7 -8 -3 0 10 -60 -25 -112 -65 -26 -20
-35 -34 -31 -48 5 -18 2 -19 -25 -14 -73 15 -236 -102 -480 -345 -232 -232
-478 -607 -553 -844 0 -1 4 -15 10 -30 10 -25 8 -29 -17 -40 -15 -6 -30 -16
-34 -21 -6 -8 -5 -16 2 -51 6 -26 -2 -46 -25 -68 -29 -27 -51 -116 -50 -203 0
-29 -2 -54 -5 -54 -3 0 -5 -15 -6 -33 0 -18 -10 -54 -22 -79 -19 -39 -23 -67
-27 -190 -2 -80 -5 -150 -6 -154 -1 -5 -1 -11 0 -14 1 -3 4 -51 6 -107 4 -119
11 -158 33 -193 14 -23 17 -69 11 -175 -4 -58 0 -67 27 -61 l26 7 -6 -64 c-6
-51 -4 -66 9 -77 8 -7 15 -9 15 -6 0 4 6 1 14 -6 13 -13 14 -63 2 -75 -11 -11
15 -43 35 -43 19 0 21 -5 17 -37 -7 -50 22 -143 67 -217 42 -70 72 -98 95 -91
14 4 16 1 13 -19 -6 -32 26 -99 85 -179 26 -34 51 -67 57 -73 5 -6 30 -35 55
-64 25 -30 66 -77 92 -105 39 -41 46 -46 41 -25 -3 14 -10 31 -16 38 -6 7 -6
12 0 12 14 0 48 -43 51 -65 4 -26 80 -137 133 -195 123 -134 208 -215 247
-233 12 -5 22 -14 22 -19 0 -14 -149 -169 -637 -664 -120 -122 -287 -293 -372
-382 -84 -88 -159 -159 -165 -157 -6 2 -45 7 -86 11 -88 7 -96 9 -134 19 -74
20 -129 67 -161 138 -29 64 -34 88 -42 199 -5 78 -3 88 11 88 16 0 69 33 91
56 98 104 262 161 272 95 6 -40 95 -95 142 -88 65 11 105 47 455 407 l119 122
-59 55 c-91 85 -287 208 -347 217 -7 1 -17 5 -24 9 -6 4 -29 5 -52 2 -32 -4
-44 -1 -59 15 -10 11 -30 23 -43 26 -61 13 -279 24 -279 14 0 -3 -12 -5 -27
-5 -58 -1 -150 -18 -248 -46 -38 -11 -77 -22 -85 -24 -8 -1 -41 -14 -72 -28
-31 -14 -59 -23 -62 -19 -3 3 -6 1 -6 -5 0 -6 -10 -13 -23 -17 -40 -10 -93
-68 -93 -101 1 -19 -4 -29 -12 -27 -17 3 -72 -26 -72 -38 0 -6 -6 -10 -12 -10
-14 -1 -131 -140 -165 -198 -53 -87 -71 -132 -69 -171 2 -36 1 -39 -17 -30
-22 13 -46 5 -43 -13 19 -94 18 -109 -2 -131 -29 -30 -34 -62 -37 -214 -3
-150 8 -220 37 -245 15 -14 19 -26 15 -61 -5 -48 -2 -57 27 -73 15 -8 20 -22
20 -65 1 -45 8 -64 40 -114 21 -33 55 -80 75 -105 48 -60 198 -209 247 -246
21 -16 41 -31 44 -34 13 -15 112 -70 125 -70 7 0 16 -4 19 -8 6 -10 32 -8 59
3 12 5 24 0 40 -18 12 -13 31 -29 42 -34 69 -35 401 -61 488 -40 21 5 45 20
53 32 15 23 22 25 61 11 29 -9 63 9 63 36 0 18 4 20 33 13 17 -3 39 -8 47 -9
8 -2 21 1 28 7 6 5 12 6 12 3 0 -4 14 3 31 15 25 18 30 27 27 51 -4 27 -3 28
22 23 33 -7 111 33 160 82 l35 36 -27 -7 c-17 -4 -28 -2 -28 4 0 16 39 50 57
50 44 0 164 108 579 517 291 286 470 452 518 482 15 9 33 11 50 7 36 -9 132
-110 147 -153 10 -31 8 -36 -23 -70 -59 -66 -1035 -1038 -1423 -1418 -475
-465 -499 -488 -686 -667 -266 -254 -280 -267 -423 -393 -122 -107 -212 -161
-266 -159 -95 3 -147 30 -296 153 -8 6 -11 53 -9 138 3 153 1 140 24 148 11 3
41 26 68 50 26 25 72 54 101 65 55 21 169 32 178 18 3 -4 14 -8 26 -8 11 0 47
-12 79 -26 l58 -26 45 21 c25 12 64 39 88 59 70 61 338 332 338 343 0 6 5 7
10 4 6 -3 10 -1 10 5 0 6 16 28 35 48 19 20 35 45 35 54 0 16 -67 88 -82 88
-3 0 -20 12 -37 26 -17 14 -31 22 -31 18 0 -4 -8 0 -17 8 -32 28 -167 96 -220
111 -28 9 -61 13 -72 10 -23 -6 -26 3 -11 27 13 20 -6 40 -33 34 -12 -3 -48
-6 -80 -8 -46 -3 -61 -1 -75 14 -25 26 -77 37 -169 35 -87 -1 -123 -16 -102
-41 21 -25 -16 -41 -49 -20 -6 4 -12 5 -12 1 0 -3 -9 -1 -20 5 -13 7 -20 7
-20 1 0 -6 -7 -8 -15 -5 -8 3 -38 1 -67 -6 -56 -13 -201 -77 -206 -91 -2 -5
-8 -9 -13 -9 -14 0 -119 -71 -119 -81 0 -4 -8 -10 -18 -13 -47 -15 -258 -262
-295 -346 -7 -14 -14 -27 -17 -30 -10 -8 -40 -77 -59 -133 -15 -45 -20 -109
-11 -142 6 -25 -1 -45 -18 -45 -10 0 -19 -6 -20 -12 0 -7 -6 -31 -11 -53 -13
-47 -12 -165 1 -215 6 -19 18 -42 27 -50 22 -18 33 -47 21 -55 -5 -3 -7 -27
-6 -53 8 -123 157 -376 302 -513 96 -91 105 -99 110 -99 3 0 14 -9 26 -20 12
-11 28 -20 35 -20 7 0 13 -4 13 -8 0 -12 181 -108 220 -118 8 -2 33 -8 54 -13
22 -5 71 -7 109 -5 62 5 69 3 74 -15 7 -28 26 -33 125 -36 82 -3 89 -1 115 23
29 27 62 31 160 20 44 -5 62 9 40 31 -16 16 -4 22 49 25 50 2 144 41 144 59 0
6 3 7 6 4 4 -4 19 4 34 16 16 12 41 32 57 44 15 12 39 31 53 43 14 11 47 40
75 63 174 148 432 397 1163 1124 350 348 638 631 640 628 2 -2 4 -93 3 -202
-1 -109 -1 -205 -2 -213 0 -8 0 -58 0 -110 1 -52 0 -111 0 -130 0 -19 0 -48 0
-65 1 -16 0 -37 0 -45 0 -8 1 -29 4 -47 2 -18 2 -35 -1 -38 -3 -2 -4 -28 -3
-57 1 -29 1 -59 1 -65 0 -31 0 -40 1 -68 1 -16 0 -32 -1 -35 -6 -16 -4 -100 3
-100 4 0 4 -8 -1 -17 -9 -21 -8 -125 2 -141 4 -7 4 -12 -1 -12 -4 0 -9 -118
-9 -263 -2 -245 -10 -540 -18 -597 -2 -14 -4 -36 -5 -50 l-2 -25 -16 22 c-20
30 -31 29 -28 -1 4 -37 8 -118 6 -147 -1 -20 -7 -28 -28 -32 -16 -3 -44 -20
-63 -37 -42 -38 -80 -59 -106 -59 -10 0 -39 -2 -64 -4 -91 -8 -193 31 -237 91
-58 79 -71 225 -29 327 7 16 12 33 12 36 -1 4 17 24 39 47 46 45 118 89 161
96 30 6 66 43 60 63 -3 6 -2 14 2 17 7 8 9 24 17 161 16 279 20 464 8 476 -5
5 -23 12 -39 15 -16 2 -54 9 -85 14 -112 20 -182 14 -220 -18 -21 -18 -31 -20
-118 -27 -60 -4 -139 -37 -188 -78 -30 -26 -170 -164 -198 -197 -54 -62 -145
-186 -145 -198 0 -7 -4 -12 -10 -12 -5 0 -29 -39 -52 -87 -35 -72 -43 -98 -44
-148 -2 -83 -2 -85 -18 -85 -8 0 -17 -16 -21 -37 -5 -21 -10 -45 -12 -53 -6
-24 -6 -221 0 -271 8 -61 16 -81 40 -101 18 -14 20 -21 11 -50 -13 -43 -7 -68
16 -68 24 0 32 -27 21 -65 -13 -47 -5 -57 30 -40 l29 15 -6 -44 c-5 -36 -2
-50 15 -74 11 -17 21 -34 21 -39 0 -13 145 -162 215 -220 84 -71 202 -148 292
-191 68 -32 86 -37 145 -35 56 1 70 -2 81 -17 35 -50 336 -51 374 -1 8 12 30
16 85 16 65 1 109 13 128 36 12 15 105 69 120 69 15 0 110 47 120 59 3 3 22
19 44 35 40 30 114 102 177 172 90 100 158 238 137 277 -12 22 -3 50 14 45 24
-8 38 19 32 62 -4 30 -2 46 10 59 20 22 23 46 32 311 9 269 11 1469 2 1483 -4
6 -2 19 3 28 6 11 5 20 -1 24 -7 4 -7 13 0 26 7 12 7 25 1 37 -6 10 -6 24 -1
32 5 8 7 17 4 21 -8 14 -1 1193 8 1297 1 6 9 12 18 12 9 0 38 20 64 44 45 40
51 43 79 34 65 -23 75 -110 81 -701 2 -197 6 -360 9 -363 2 -3 1 -21 -4 -41
-4 -20 -5 -44 -1 -52 9 -20 9 -42 -1 -58 -4 -6 -3 -14 2 -17 5 -3 6 -21 1 -40
-4 -19 -5 -37 -2 -41 7 -7 5 -112 -2 -124 -4 -5 -2 -12 3 -15 6 -4 6 -18 1
-36 -5 -16 -5 -32 -1 -34 8 -5 6 -100 -2 -113 -3 -5 -2 -15 3 -22 4 -8 4 -27
0 -42 -5 -18 -5 -29 1 -29 6 0 6 -7 0 -19 -6 -10 -8 -21 -5 -24 6 -5 9 -102 4
-122 -1 -5 -2 -12 -1 -15 1 -3 4 -223 6 -490 5 -481 7 -563 24 -866 0 -12 10
-31 21 -44 11 -12 18 -25 16 -29 -16 -25 -14 -88 5 -143 19 -58 97 -186 156
-256 40 -48 181 -190 232 -235 58 -50 166 -127 179 -127 6 0 12 -4 14 -8 2 -5
33 -21 69 -35 63 -25 129 -31 157 -13 7 4 22 -4 35 -18 31 -33 105 -46 255
-42 119 3 124 4 148 29 14 15 33 27 42 27 117 3 269 62 389 151 50 37 68 67
61 99 -2 9 6 15 20 16 12 1 26 2 31 3 12 1 121 113 121 123 0 3 6 13 13 20 21
22 87 126 87 137 0 6 3 11 8 11 16 0 57 116 57 163 0 26 5 51 12 55 21 13 31
100 32 297 2 170 -9 255 -32 255 -8 0 -12 21 -12 63 0 48 -7 75 -30 122 -31
63 -65 118 -77 123 -5 2 -8 8 -8 13 0 17 -98 131 -182 211 -217 207 -451 298
-669 258 -30 -5 -68 -11 -84 -13 -17 -2 -36 -6 -42 -10 -8 -5 -12 -104 -12
-347 l0 -341 42 -19 c116 -53 198 -81 243 -83 34 -2 35 -3 29 -37 -5 -28 -1
-44 19 -72 36 -54 54 -97 61 -150 9 -61 0 -88 -30 -88 -18 0 -28 -11 -45 -48
-28 -59 -46 -79 -92 -103 -70 -36 -196 -40 -379 -13 l-35 5 0 220 c1 120 -1
219 -4 219 -3 0 -5 144 -5 320 0 207 -4 320 -10 320 -6 0 -6 3 0 8 12 8 14
132 2 132 -5 0 -5 6 0 12 9 17 10 49 1 69 -4 9 -4 19 -1 23 8 8 7 102 -1 115
-4 5 -2 12 4 16 6 4 8 11 4 16 -7 11 -16 969 -9 969 2 0 222 -217 489 -483
711 -708 956 -947 1142 -1113 174 -156 217 -186 252 -177 21 5 23 3 17 -15
-15 -49 96 -116 193 -117 56 0 63 -2 68 -22 5 -19 56 -48 67 -37 2 2 29 6 60
8 51 4 57 3 57 -15 0 -28 44 -42 122 -36 70 4 101 19 92 41 -6 17 12 24 51 20
139 -15 180 -9 220 29 26 25 78 47 111 47 65 0 307 205 445 377 29 35 71 113
62 113 -4 0 -2 4 6 9 11 7 15 30 15 79 1 39 3 70 6 69 3 0 15 2 27 7 21 7 22
12 17 57 -5 42 -3 52 14 67 12 9 25 34 31 55 12 46 12 297 0 297 -5 0 -6 6 -3
14 3 7 -6 26 -19 42 -24 30 -27 58 -13 120 5 23 3 33 -8 37 -8 3 -17 3 -20 -1
-4 -3 -16 -7 -27 -9 -18 -3 -18 -1 -7 20 7 12 11 25 10 29 -1 3 -4 21 -7 38
-9 50 -84 175 -149 249 -98 111 -289 281 -315 281 -6 0 -11 4 -11 8 0 5 -24
19 -52 31 -40 18 -63 22 -98 17 -42 -6 -46 -4 -62 24 -17 30 -17 30 -87 25
-45 -4 -71 -2 -71 4 0 24 -52 43 -124 46 -94 4 -152 -10 -173 -41 -14 -22 -21
-23 -85 -20 -83 5 -116 -4 -223 -54 -203 -96 -325 -184 -325 -233 0 -32 20
-87 31 -87 5 0 9 -5 9 -11 0 -12 58 -74 202 -218 141 -142 198 -191 243 -212
l40 -19 25 28 c23 24 33 28 90 29 36 1 81 3 100 6 19 2 63 7 97 11 l62 7 20
-39 c21 -41 106 -122 129 -122 14 0 14 -1 18 -108 1 -46 5 -89 8 -97 3 -8 2
-15 -3 -15 -5 0 -8 -8 -8 -17 0 -41 -4 -53 -16 -53 -7 0 -35 -21 -63 -47 -59
-54 -170 -100 -268 -110 -57 -6 -58 -5 -54 18 3 25 0 26 -64 15 -18 -3 -31 1
-36 10 -45 80 -1266 1302 -2096 2097 -87 84 -196 189 -243 234 -47 46 -87 83
-89 83 -1 0 -23 19 -47 43 -100 96 -177 164 -201 175 -14 6 -26 18 -26 26 0
21 30 41 57 38 13 -2 31 2 39 8 7 7 14 10 14 6 0 -6 29 16 65 49 12 11 40 37
63 58 l42 37 154 -152 c229 -228 347 -327 395 -331 11 -1 20 -6 19 -12 -2 -12
12 -58 21 -65 3 -3 26 -30 51 -60 73 -90 323 -335 456 -447 211 -177 309 -236
434 -260 49 -9 71 -10 75 -3 3 5 13 7 23 5 9 -2 20 -4 25 -4 4 -1 7 -7 7 -15
0 -13 16 -22 60 -34 33 -8 216 -8 254 0 23 5 51 20 63 33 19 20 27 22 54 15
56 -16 130 3 243 64 200 105 423 311 428 393 1 10 -2 28 -6 41 -7 20 -5 21 18
12 21 -8 29 -5 47 13 29 31 42 57 29 57 -7 0 -8 6 -1 18 6 12 5 28 -5 50 -13
32 -13 33 9 26 54 -17 57 -12 44 66 -6 35 3 63 19 60 21 -4 32 91 29 250 -2
91 -5 176 -9 190 -3 14 -9 41 -12 60 -4 19 -9 40 -13 45 -3 6 -7 18 -8 28 -2
10 -10 34 -20 55 -9 20 -15 41 -14 46 1 5 -4 16 -11 25 -7 9 -24 37 -38 64
-13 26 -28 47 -32 47 -5 0 -8 5 -8 11 0 18 -119 159 -212 251 -127 125 -212
180 -274 175 -28 -1 -39 3 -48 18 -19 34 -31 37 -85 20 -10 -3 -28 3 -41 15
-13 11 -28 20 -34 21 -6 0 -29 3 -51 6 -52 8 -307 8 -365 1 -52 -7 -80 -17
-98 -35 -8 -8 -27 -11 -47 -9 -98 12 -411 -170 -445 -260 -18 -46 21 -96 236
-304 207 -199 251 -235 306 -244 40 -6 145 57 147 89 2 17 126 11 155 -8 14
-10 26 -15 26 -11 0 3 14 -6 31 -20 17 -14 34 -26 39 -26 18 0 93 -102 96
-132 5 -37 20 -58 44 -58 22 0 42 -40 38 -76 -3 -27 -6 -29 -40 -26 -37 3 -37
2 -33 -30 12 -94 13 -91 -25 -101 -19 -5 -47 -21 -61 -37 -33 -36 -108 -62
-179 -63 -98 0 -175 50 -429 281 -216 196 -719 691 -809 797 -73 84 -76 95
-49 157 25 55 62 86 92 75 17 -7 159 127 236 223 24 30 46 57 49 60 37 36 105
163 96 179 -3 4 8 5 24 3 25 -4 38 5 89 57 33 34 87 101 121 149 33 48 65 95
72 104 20 30 66 111 89 158 12 25 26 48 31 51 5 3 9 9 8 13 -1 3 8 32 20 64
14 38 20 71 17 100 -4 37 0 47 24 71 32 32 49 87 54 175 4 81 13 122 30 157
18 34 26 147 27 374 2 267 -12 435 -37 465 -8 9 -11 33 -9 60 8 95 5 113 -22
138 -22 21 -25 29 -19 66 13 82 13 81 -22 79 -33 -3 -35 3 -18 57 6 19 -18 50
-39 50 -9 0 -13 17 -13 59 0 32 -4 64 -9 72 -5 8 -9 16 -10 19 0 3 -7 19 -14
35 -7 17 -13 33 -12 38 1 4 -2 7 -7 7 -5 0 -11 10 -15 23 -3 12 -22 39 -42 60
-29 29 -40 35 -50 26 -15 -13 -17 -8 -14 34 2 36 -15 79 -54 137 -37 56 -65
79 -92 80 -17 0 -20 5 -16 25 2 14 -3 41 -13 62 -25 52 -228 253 -350 346 -5
4 -28 21 -50 37 -65 49 -85 64 -98 76 -23 20 -274 183 -301 195 -14 7 -26 16
-26 21 0 4 -6 8 -12 8 -7 0 -42 15 -78 33 -36 17 -72 34 -80 36 -34 8 -90 9
-95 1 -9 -15 -35 1 -35 21 0 24 -37 39 -68 28 -29 -11 -58 3 -67 32 -6 19 -12
20 -71 14 -61 -6 -66 -5 -93 23 -22 22 -36 28 -62 25 -88 -7 -171 -5 -178 5
-16 26 -72 35 -231 37 -91 2 -169 2 -175 0z m400 -820 c44 -8 50 -11 50 -28 0
-9 26 -11 87 -9 82 3 88 2 109 -21 14 -18 29 -24 45 -21 13 2 35 6 49 8 20 4
28 -1 36 -18 13 -27 71 -63 164 -100 78 -32 88 -34 129 -35 24 -1 28 -4 24
-25 -3 -13 0 -30 6 -39 21 -28 86 -57 127 -57 40 0 40 -1 34 -29 -8 -35 11
-68 71 -124 54 -50 92 -69 123 -62 24 5 26 3 27 -32 2 -40 64 -183 89 -203 8
-7 15 -17 15 -23 0 -9 29 -38 73 -74 13 -10 14 -20 6 -49 -13 -45 -5 -72 16
-54 16 13 39 4 32 -14 -17 -46 -16 -54 12 -83 27 -29 28 -33 20 -79 -10 -55
-6 -74 15 -74 22 0 27 -30 22 -133 -4 -75 -2 -98 10 -113 9 -10 13 -13 9 -7
-4 9 -1 11 9 7 9 -3 16 -9 17 -13 0 -3 3 -15 6 -26 3 -11 6 -67 7 -125 3 -110
-11 -164 -38 -154 -20 8 -25 -26 -21 -140 3 -91 -6 -146 -26 -146 -14 0 -18
-31 -10 -76 11 -55 5 -81 -19 -87 -9 -2 -30 -31 -46 -63 -34 -71 -125 -214
-136 -214 -4 0 -8 -5 -8 -11 0 -7 -24 -42 -53 -78 -80 -98 -132 -171 -157
-221 -13 -25 -22 -46 -21 -47 7 -13 -2 -24 -15 -19 -29 11 -142 -84 -246 -209
-99 -118 -150 -175 -156 -175 -16 0 -142 138 -162 177 -19 38 -20 46 -8 73 7
16 16 30 20 30 5 0 8 7 8 15 0 17 338 361 346 352 3 -3 -10 -21 -29 -40 -18
-20 -65 -71 -103 -114 -38 -43 -76 -85 -84 -93 -8 -8 -21 -24 -29 -35 -8 -11
62 57 155 150 192 194 257 279 247 327 -6 29 -5 30 16 18 54 -29 98 75 66 154
-7 16 -5 18 16 14 29 -5 39 4 59 52 25 61 32 122 17 164 -8 25 -7 31 12 45 31
24 43 78 44 211 1 150 -8 218 -33 245 -16 17 -19 33 -17 87 2 70 -1 78 -30 82
-15 2 -18 12 -18 62 0 95 -71 216 -117 199 -12 -5 -15 3 -15 36 0 24 -5 45
-12 47 -6 2 -11 9 -11 16 0 16 -55 90 -102 139 -67 69 -108 97 -145 97 -29 0
-32 2 -24 18 18 33 -41 83 -187 160 -46 24 -89 45 -96 46 -6 1 -22 8 -36 16
-14 7 -27 13 -30 12 -3 -1 -21 3 -40 8 -116 30 -216 39 -455 39 -224 -1 -242
-2 -266 -23 -20 -17 -61 -17 -121 0 -21 6 -25 -25 -7 -43 18 -18 1 -35 -23
-22 -58 31 -230 -53 -222 -108 3 -18 -1 -21 -31 -20 -56 2 -170 -86 -276 -213
-59 -70 -72 -96 -71 -138 1 -28 -1 -32 -17 -27 -32 10 -101 -92 -141 -210 -15
-45 -17 -65 -8 -106 2 -7 -8 -18 -21 -25 -35 -18 -41 -35 -35 -95 2 -30 5 -58
6 -64 1 -20 -7 -40 -24 -55 -47 -42 -41 -290 8 -290 14 0 19 -17 15 -55 -5
-52 -2 -89 13 -150 18 -76 104 -275 118 -275 4 0 8 -5 8 -12 0 -21 43 -58 67
-58 20 0 22 -4 17 -24 -5 -19 6 -42 45 -98 28 -40 67 -91 86 -113 101 -113
144 -162 164 -185 11 -14 34 -40 50 -59 16 -19 44 -59 61 -88 32 -51 32 -54
15 -73 -13 -14 -16 -29 -12 -55 6 -39 7 -38 -26 -26 -18 7 -31 5 -53 -10 -16
-10 -32 -19 -37 -19 -4 0 -45 38 -91 85 -51 52 -91 85 -103 85 -13 0 -29 13
-41 33 -66 110 -219 273 -299 319 -60 34 -63 37 -70 81 -11 71 -61 142 -94
134 -22 -6 -24 10 -10 60 11 36 -1 52 -24 33 -22 -18 -36 -3 -25 26 6 14 10
34 10 45 0 16 -5 18 -25 13 -24 -6 -32 3 -25 31 15 59 16 86 4 96 -11 9 -14 8
-14 -1 0 -10 -3 -10 -14 -1 -11 9 -14 31 -11 92 4 63 2 79 -10 79 -29 0 -39
84 -39 350 0 245 8 324 33 360 16 23 21 72 11 115 -6 28 2 51 23 60 19 9 22
18 22 61 0 28 6 58 14 67 7 10 10 17 7 17 -4 0 5 11 19 25 14 14 25 30 25 35
0 5 6 15 13 22 7 7 52 70 100 139 123 177 242 309 377 420 87 72 130 120 127
144 -2 16 4 20 33 21 30 2 68 8 105 18 60 15 136 41 166 56 20 11 39 16 43 13
3 -4 6 -1 6 5 0 7 6 12 14 12 8 0 18 9 21 21 6 19 12 20 90 14 71 -6 84 -5 92
9 9 17 35 25 91 31 18 1 35 5 37 7 7 7 376 0 420 -7z m-159 -1244 c6 0 22 -12
35 -25 13 -13 42 -26 64 -30 56 -11 80 -26 160 -96 72 -64 109 -85 127 -74 7
5 9 -3 4 -22 -19 -86 -19 -92 -1 -91 10 1 19 -6 22 -18 4 -21 6 -86 4 -95 -6
-19 -14 -165 -15 -267 -1 -85 -5 -123 -12 -123 -21 0 -127 -84 -214 -170 -107
-105 -201 -185 -239 -204 -27 -14 -31 -14 -52 3 -17 13 -33 17 -56 14 -28 -5
-38 0 -72 34 -34 33 -39 44 -35 71 5 28 -3 39 -73 110 -90 91 -121 112 -162
112 -30 0 -30 0 -26 50 5 62 -9 110 -37 131 -25 19 -29 43 -30 159 0 96 7 143
22 148 20 7 40 34 40 54 0 27 34 81 82 130 46 47 61 79 52 115 -6 23 -5 25 12
18 30 -12 59 -11 57 2 -4 19 33 34 64 26 37 -9 55 -5 70 17 7 10 26 20 41 22
23 4 135 3 168 -1z m27 -2482 l86 -81 -77 -97 c-42 -53 -78 -98 -82 -101 -3
-3 -18 -22 -33 -43 l-28 -37 -45 42 c-25 24 -78 74 -117 111 l-70 68 29 25
c16 13 41 34 55 47 23 20 92 78 152 128 12 10 27 18 33 19 7 0 50 -37 97 -81z
m1565 -1486 c122 -123 222 -229 222 -235 0 -14 -21 4 -128 107 -152 145 -327
329 -344 360 -10 18 -10 19 8 6 10 -8 119 -115 242 -238z m1722 -234 c-46 -43
-70 -58 -70 -46 0 2 9 15 21 28 12 13 31 36 43 50 25 29 49 41 55 26 2 -5 -20
-32 -49 -58z m-6810 43 c60 -71 70 -85 70 -93 0 -6 -6 -4 -14 3 -8 7 -35 31
-60 53 -25 22 -46 43 -46 47 0 15 36 8 50 -10z m4968 -231 c127 -125 157 -161
135 -161 -8 0 -243 238 -243 246 0 3 -17 21 -37 41 -21 20 -29 31 -18 25 11
-6 84 -74 163 -151z m-3228 -129 c0 -15 -209 -214 -219 -208 -9 6 196 216 211
216 4 0 8 -4 8 -8z m-222 -219 c-1 -5 -37 -39 -78 -78 -73 -68 -68 -59 20 38
38 41 68 62 58 40z m3989 -1190 c111 -112 208 -213 214 -226 l12 -22 -23 20
c-132 113 -460 448 -460 469 0 14 36 -20 257 -241z m-4469 -299 c-41 -41 -73
-76 -70 -79 3 -3 1 -5 -5 -5 -6 0 -48 -36 -93 -80 -45 -44 -86 -80 -91 -80 -5
0 30 41 78 91 170 177 248 250 252 238 2 -7 -30 -45 -71 -85z m-268 -264 c-8
-5 -19 -10 -25 -10 -5 0 -3 5 5 10 8 5 20 10 25 10 6 0 3 -5 -5 -10z m1085
-585 c-8 -54 -25 -49 -27 7 -1 42 10 64 24 50 6 -6 8 -29 3 -57z"/>
<path d="M5705 6320 c-3 -6 -2 -10 4 -10 5 0 12 -8 15 -18 7 -21 115 -132 129
-132 10 0 -16 44 -42 72 -9 9 -21 23 -27 30 -28 33 -74 66 -79 58z"/>
<path d="M4927 5550 c24 -37 116 -134 154 -161 54 -39 29 1 -58 91 -93 96
-129 122 -96 70z"/>
<path d="M4169 3212 c-1 -12 -1 -33 -1 -47 0 -61 2 -69 14 -57 15 15 14 100
-1 115 -8 8 -11 5 -12 -11z"/>
<path d="M4169 2908 c-1 -25 -1 -82 0 -112 2 -33 20 -4 22 34 3 62 -1 100 -11
100 -5 0 -11 -10 -11 -22z"/>
<path d="M4168 1362 c-7 -52 -3 -92 9 -92 13 0 18 24 14 65 -2 23 -20 45 -23
27z"/>
</g>
</svg>
